<?xml version="1.0" encoding="UTF-8" standalone="no"?>
<!-- Created with Inkscape (http://www.inkscape.org/) -->

<svg
   xmlns:dc="http://purl.org/dc/elements/1.1/"
   xmlns:cc="http://creativecommons.org/ns#"
   xmlns:rdf="http://www.w3.org/1999/02/22-rdf-syntax-ns#"
   xmlns:svg="http://www.w3.org/2000/svg"
   xmlns="http://www.w3.org/2000/svg"
   xmlns:sodipodi="http://sodipodi.sourceforge.net/DTD/sodipodi-0.dtd"
   xmlns:inkscape="http://www.inkscape.org/namespaces/inkscape"
   id="svg4155"
   version="1.1"
   inkscape:version="0.91 r13725"
   xml:space="preserve"
   width="804.33636"
   height="670.5069"
   viewBox="0 0 804.33636 670.5069"
   sodipodi:docname="braytonReal.svg"><metadata
     id="metadata4161"><rdf:RDF><cc:Work
         rdf:about=""><dc:format>image/svg+xml</dc:format><dc:type
           rdf:resource="http://purl.org/dc/dcmitype/StillImage" /><dc:title></dc:title></cc:Work></rdf:RDF></metadata><defs
     id="defs4159" /><sodipodi:namedview
     pagecolor="#ffffff"
     bordercolor="#666666"
     borderopacity="1"
     objecttolerance="10"
     gridtolerance="10"
     guidetolerance="10"
     inkscape:pageopacity="0"
     inkscape:pageshadow="2"
     inkscape:window-width="1440"
     inkscape:window-height="851"
     id="namedview4157"
     showgrid="false"
     inkscape:zoom="0.96792442"
     inkscape:cx="402.16818"
     inkscape:cy="335.25345"
     inkscape:window-x="0"
     inkscape:window-y="0"
     inkscape:window-maximized="1"
     inkscape:current-layer="g4163" /><g
     id="g4163"
     inkscape:groupmode="layer"
     inkscape:label="braytonReal"
     transform="matrix(1.25,0,0,-1.25,0,670.5069)"><g
       id="g4165"><text
         transform="matrix(1,0,0,-1,445.75249,331.69227)"
         style="font-variant:normal;font-weight:normal;font-size:32px;font-family:'Times New Roman';-inkscape-font-specification:TimesNewRomanPSMT;writing-mode:lr-tb;fill:#000000;fill-opacity:1;fill-rule:nonzero;stroke:none"
         id="text4167"><tspan
           x="0 16"
           y="0"
           sodipodi:role="line"
           id="tspan4169">05</tspan></text>
<text
         transform="matrix(1,0,0,-1,477.75249,331.69227)"
         style="font-style:italic;font-variant:normal;font-size:32px;font-family:'Times New Roman';-inkscape-font-specification:TimesNewRomanPS-ItalicMT;writing-mode:lr-tb;fill:#000000;fill-opacity:1;fill-rule:nonzero;stroke:none"
         id="text4171"><tspan
           x="0"
           y="0"
           id="tspan4173">s</tspan></text>
<g
         id="g4175"
         transform="matrix(1,0,0,-1,0,536.40552)"><path
           d="m 49.738,17.73 0,480 576,0"
           style="fill:none;stroke:#000000;stroke-width:3;stroke-linecap:butt;stroke-linejoin:miter;stroke-miterlimit:4;stroke-dasharray:none;stroke-opacity:1"
           id="path4177"
           inkscape:connector-curvature="0" /></g><g
         id="g4179"
         transform="matrix(0,-1,-1,0,0,536.40552)"><path
           d="m 29.73,-49.738 6,-6 -21,6 21,6 -6,-6 z"
           style="fill:#000000;fill-opacity:1;fill-rule:evenodd;stroke:#000000;stroke-width:1.5;stroke-linecap:butt;stroke-linejoin:miter;stroke-miterlimit:4;stroke-dasharray:none;stroke-opacity:1"
           id="path4181"
           inkscape:connector-curvature="0" /></g><g
         id="g4183"
         transform="matrix(-1,0,0,1,0,536.40552)"><path
           d="m -613.738,-497.73 6,-6 -21,6 21,6 -6,-6 z"
           style="fill:#000000;fill-opacity:1;fill-rule:evenodd;stroke:#000000;stroke-width:1.5;stroke-linecap:butt;stroke-linejoin:miter;stroke-miterlimit:4;stroke-dasharray:none;stroke-opacity:1"
           id="path4185"
           inkscape:connector-curvature="0" /></g><text
         transform="matrix(0,1,1,0,29.561285,494.76437)"
         style="font-style:italic;font-variant:normal;font-size:32px;font-family:'Times New Roman';-inkscape-font-specification:TimesNewRomanPS-ItalicMT;writing-mode:lr-tb;fill:#000000;fill-opacity:1;fill-rule:nonzero;stroke:none"
         id="text4187"><tspan
           x="0"
           y="0"
           id="tspan4189">T</tspan></text>
<text
         transform="matrix(1,0,0,-1,609.82793,6.675478)"
         style="font-style:italic;font-variant:normal;font-size:32px;font-family:'Times New Roman';-inkscape-font-specification:TimesNewRomanPS-ItalicMT;writing-mode:lr-tb;fill:#000000;fill-opacity:1;fill-rule:nonzero;stroke:none"
         id="text4191"><tspan
           x="0"
           y="0"
           id="tspan4193">s</tspan></text>
<g
         id="g4195"
         transform="matrix(1,0,0,-1,0,536.40552)"><path
           d="m 139.824,438.664 c 138.559,-6.519 228.43,-27.422 368,-96.914 l 0,-275.234 c -145.355,116.64 -196.414,134.707 -368,182.41 l 0,187.844"
           style="fill:none;stroke:#0000ff;stroke-width:4;stroke-linecap:butt;stroke-linejoin:miter;stroke-miterlimit:4;stroke-dasharray:none;stroke-opacity:1"
           id="path4197"
           inkscape:connector-curvature="0" /></g><text
         transform="matrix(1,0,0,-1,492.47876,162.32123)"
         style="font-style:italic;font-variant:normal;font-size:32px;font-family:'Times New Roman';-inkscape-font-specification:TimesNewRomanPS-ItalicMT;writing-mode:lr-tb;fill:#000000;fill-opacity:1;fill-rule:nonzero;stroke:none"
         id="text4199"><tspan
           x="0 14.176"
           y="0"
           sodipodi:role="line"
           id="tspan4201">es</tspan></text>
<text
         transform="matrix(1,0,0,-1,468.94404,486.76091)"
         style="font-variant:normal;font-weight:normal;font-size:32px;font-family:'Times New Roman';-inkscape-font-specification:TimesNewRomanPSMT;writing-mode:lr-tb;fill:#000000;fill-opacity:1;fill-rule:nonzero;stroke:none"
         id="text4203"><tspan
           x="0 16"
           y="0"
           sodipodi:role="line"
           id="tspan4205">04</tspan></text>
<text
         transform="matrix(1,0,0,-1,500.94404,486.76091)"
         style="font-style:italic;font-variant:normal;font-size:32px;font-family:'Times New Roman';-inkscape-font-specification:TimesNewRomanPS-ItalicMT;writing-mode:lr-tb;fill:#000000;fill-opacity:1;fill-rule:nonzero;stroke:none"
         id="text4207"><tspan
           x="0"
           y="0"
           id="tspan4209">s</tspan></text>
<text
         transform="matrix(1,0,0,-1,88.748328,301.22206)"
         style="font-variant:normal;font-weight:normal;font-size:32px;font-family:'Times New Roman';-inkscape-font-specification:TimesNewRomanPSMT;writing-mode:lr-tb;fill:#000000;fill-opacity:1;fill-rule:nonzero;stroke:none"
         id="text4211"><tspan
           x="0 16"
           y="0"
           sodipodi:role="line"
           id="tspan4213">03</tspan></text>
<text
         transform="matrix(1,0,0,-1,120.74833,301.22206)"
         style="font-style:italic;font-variant:normal;font-size:32px;font-family:'Times New Roman';-inkscape-font-specification:TimesNewRomanPS-ItalicMT;writing-mode:lr-tb;fill:#000000;fill-opacity:1;fill-rule:nonzero;stroke:none"
         id="text4215"><tspan
           x="0"
           y="0"
           id="tspan4217">s</tspan></text>
<text
         transform="matrix(1,0,0,-1,84.466312,159.48363)"
         style="font-variant:normal;font-weight:normal;font-size:32px;font-family:'Times New Roman';-inkscape-font-specification:TimesNewRomanPSMT;writing-mode:lr-tb;fill:#000000;fill-opacity:1;fill-rule:nonzero;stroke:none"
         id="text4219"><tspan
           x="0 16"
           y="0"
           sodipodi:role="line"
           id="tspan4221">02</tspan></text>
<text
         transform="matrix(1,0,0,-1,116.46631,159.48363)"
         style="font-style:italic;font-variant:normal;font-size:32px;font-family:'Times New Roman';-inkscape-font-specification:TimesNewRomanPS-ItalicMT;writing-mode:lr-tb;fill:#000000;fill-opacity:1;fill-rule:nonzero;stroke:none"
         id="text4223"><tspan
           x="0"
           y="0"
           id="tspan4225">s</tspan></text>
<text
         transform="matrix(1,0,0,-1,122.60734,62.87627)"
         style="font-variant:normal;font-weight:normal;font-size:32px;font-family:'Times New Roman';-inkscape-font-specification:TimesNewRomanPSMT;writing-mode:lr-tb;fill:#000000;fill-opacity:1;fill-rule:nonzero;stroke:none"
         id="text4227"><tspan
           x="0 16"
           y="0"
           sodipodi:role="line"
           id="tspan4229">00</tspan></text>
<text
         transform="matrix(1,0,0,-1,309.19114,90.946958)"
         style="font-style:italic;font-variant:normal;font-size:32px;font-family:'Times New Roman';-inkscape-font-specification:TimesNewRomanPS-ItalicMT;writing-mode:lr-tb;fill:#000000;fill-opacity:1;fill-rule:nonzero;stroke:none"
         id="text4231"><tspan
           x="0"
           y="0"
           id="tspan4233">p</tspan></text>
<text
         transform="matrix(1,0,0,-1,325.19111,84.546962)"
         style="font-variant:normal;font-weight:normal;font-size:20.79999924px;font-family:'Times New Roman';-inkscape-font-specification:TimesNewRomanPSMT;writing-mode:lr-tb;fill:#000000;fill-opacity:1;fill-rule:nonzero;stroke:none"
         id="text4235"><tspan
           x="0 10.4"
           y="0"
           sodipodi:role="line"
           id="tspan4237">00</tspan></text>
<text
         transform="matrix(1,0,0,-1,353.99111,90.946962)"
         style="font-style:italic;font-variant:normal;font-size:32px;font-family:'Times New Roman';-inkscape-font-specification:TimesNewRomanPS-ItalicMT;writing-mode:lr-tb;fill:#000000;fill-opacity:1;fill-rule:nonzero;stroke:none"
         id="text4239"><tspan
           x="0 21.568001 29.568001"
           y="0"
           sodipodi:role="line"
           id="tspan4241">= p</tspan></text>
<text
         transform="matrix(1,0,0,-1,399.61611,84.546962)"
         style="font-style:italic;font-variant:normal;font-size:20.79999924px;font-family:'Times New Roman';-inkscape-font-specification:TimesNewRomanPS-ItalicMT;writing-mode:lr-tb;fill:#000000;fill-opacity:1;fill-rule:nonzero;stroke:none"
         id="text4243"><tspan
           x="0 9.2144003"
           y="0"
           sodipodi:role="line"
           id="tspan4245">es</tspan></text>
<text
         transform="matrix(1,0,0,-1,424.92236,90.946962)"
         style="font-variant:normal;font-weight:normal;font-size:32px;font-family:'Times New Roman';-inkscape-font-specification:TimesNewRomanPSMT;writing-mode:lr-tb;fill:#000000;fill-opacity:1;fill-rule:nonzero;stroke:none"
         id="text4247"><tspan
           x="0 18.016001"
           y="0"
           sodipodi:role="line"
           id="tspan4249">= </tspan></text>
<text
         transform="matrix(1,0,0,-1,450.93836,90.946962)"
         style="font-style:italic;font-variant:normal;font-size:32px;font-family:'Times New Roman';-inkscape-font-specification:TimesNewRomanPS-ItalicMT;writing-mode:lr-tb;fill:#000000;fill-opacity:1;fill-rule:nonzero;stroke:none"
         id="text4251"><tspan
           x="0"
           y="0"
           id="tspan4253">p</tspan></text>
<text
         transform="matrix(1,0,0,-1,466.98486,84.546962)"
         style="font-variant:normal;font-weight:normal;font-size:20.79999924px;font-family:'Times New Roman';-inkscape-font-specification:TimesNewRomanPSMT;writing-mode:lr-tb;fill:#000000;fill-opacity:1;fill-rule:nonzero;stroke:none"
         id="text4255"><tspan
           x="0"
           y="0"
           id="tspan4257">0</tspan></text>
<text
         transform="matrix(1,0,0,-1,477.38486,84.546962)"
         style="font-style:italic;font-variant:normal;font-size:20.79999924px;font-family:'Times New Roman';-inkscape-font-specification:TimesNewRomanPS-ItalicMT;writing-mode:lr-tb;fill:#000000;fill-opacity:1;fill-rule:nonzero;stroke:none"
         id="text4259"><tspan
           x="0"
           y="0"
           id="tspan4261">e</tspan></text>
<text
         transform="matrix(1,0,0,-1,195.5948,404.78527)"
         style="font-style:italic;font-variant:normal;font-size:32px;font-family:'Times New Roman';-inkscape-font-specification:TimesNewRomanPS-ItalicMT;writing-mode:lr-tb;fill:#000000;fill-opacity:1;fill-rule:nonzero;stroke:none"
         id="text4263"><tspan
           x="0"
           y="0"
           id="tspan4265">p</tspan></text>
<text
         transform="matrix(1,0,0,-1,211.5948,398.38527)"
         style="font-variant:normal;font-weight:normal;font-size:20.79999924px;font-family:'Times New Roman';-inkscape-font-specification:TimesNewRomanPSMT;writing-mode:lr-tb;fill:#000000;fill-opacity:1;fill-rule:nonzero;stroke:none"
         id="text4267"><tspan
           x="0 10.4"
           y="0"
           sodipodi:role="line"
           id="tspan4269">03</tspan></text>
<text
         transform="matrix(1,0,0,-1,232.3948,398.38527)"
         style="font-style:italic;font-variant:normal;font-size:20.79999924px;font-family:'Times New Roman';-inkscape-font-specification:TimesNewRomanPS-ItalicMT;writing-mode:lr-tb;fill:#000000;fill-opacity:1;fill-rule:nonzero;stroke:none"
         id="text4271"><tspan
           x="0"
           y="0"
           id="tspan4273">s</tspan></text>
<text
         transform="matrix(1,0,0,-1,248.47917,404.78527)"
         style="font-style:italic;font-variant:normal;font-size:32px;font-family:'Times New Roman';-inkscape-font-specification:TimesNewRomanPS-ItalicMT;writing-mode:lr-tb;fill:#000000;fill-opacity:1;fill-rule:nonzero;stroke:none"
         id="text4275"><tspan
           x="0 21.568001 29.568001"
           y="0"
           sodipodi:role="line"
           id="tspan4277">= p</tspan></text>
<text
         transform="matrix(1,0,0,-1,294.10417,398.38527)"
         style="font-variant:normal;font-weight:normal;font-size:20.79999924px;font-family:'Times New Roman';-inkscape-font-specification:TimesNewRomanPSMT;writing-mode:lr-tb;fill:#000000;fill-opacity:1;fill-rule:nonzero;stroke:none"
         id="text4279"><tspan
           x="0 10.4"
           y="0"
           sodipodi:role="line"
           id="tspan4281">03</tspan></text>
<text
         transform="matrix(1,0,0,-1,322.90417,404.78527)"
         style="font-variant:normal;font-weight:normal;font-size:32px;font-family:'Times New Roman';-inkscape-font-specification:TimesNewRomanPSMT;writing-mode:lr-tb;fill:#000000;fill-opacity:1;fill-rule:nonzero;stroke:none"
         id="text4283"><tspan
           x="0 18.016001"
           y="0"
           sodipodi:role="line"
           id="tspan4285">= </tspan></text>
<text
         transform="matrix(1,0,0,-1,348.92017,404.78527)"
         style="font-style:italic;font-variant:normal;font-size:32px;font-family:'Times New Roman';-inkscape-font-specification:TimesNewRomanPS-ItalicMT;writing-mode:lr-tb;fill:#000000;fill-opacity:1;fill-rule:nonzero;stroke:none"
         id="text4287"><tspan
           x="0"
           y="0"
           id="tspan4289">p</tspan></text>
<text
         transform="matrix(1,0,0,-1,364.96667,398.38527)"
         style="font-variant:normal;font-weight:normal;font-size:20.79999924px;font-family:'Times New Roman';-inkscape-font-specification:TimesNewRomanPSMT;writing-mode:lr-tb;fill:#000000;fill-opacity:1;fill-rule:nonzero;stroke:none"
         id="text4291"><tspan
           x="0 10.4"
           y="0"
           sodipodi:role="line"
           id="tspan4293">04</tspan></text>
<text
         transform="matrix(1,0,0,-1,385.76667,398.38527)"
         style="font-style:italic;font-variant:normal;font-size:20.79999924px;font-family:'Times New Roman';-inkscape-font-specification:TimesNewRomanPS-ItalicMT;writing-mode:lr-tb;fill:#000000;fill-opacity:1;fill-rule:nonzero;stroke:none"
         id="text4295"><tspan
           x="0"
           y="0"
           id="tspan4297">s</tspan></text>
<g
         id="g4299"
         transform="matrix(1,0,0,-1,0,536.40552)"><path
           d="M 72.254,259.34 C 215.766,233.625 362.32,205.004 558.277,22.617"
           style="fill:none;stroke:#000000;stroke-width:0.80000001;stroke-linecap:butt;stroke-linejoin:miter;stroke-miterlimit:4;stroke-dasharray:none;stroke-opacity:1"
           id="path4301"
           inkscape:connector-curvature="0" /></g><g
         id="g4303"
         transform="matrix(1,0,0,-1,0,536.40552)"><path
           d="m 70.465,441.363 c 195.265,0.961 317.336,-23.937 548.156,-159.39"
           style="fill:none;stroke:#000000;stroke-width:0.80000001;stroke-linecap:butt;stroke-linejoin:miter;stroke-miterlimit:4;stroke-dasharray:none;stroke-opacity:1"
           id="path4305"
           inkscape:connector-curvature="0" /></g><g
         id="g4307"
         transform="matrix(1,0,0,-1,0,536.40552)"><path
           d="m 73.148,392.578 c 85.192,-6.086 134.79,-8.82 205.047,-42.242"
           style="fill:none;stroke:#000000;stroke-width:0.80000001;stroke-linecap:butt;stroke-linejoin:miter;stroke-miterlimit:4;stroke-dasharray:none;stroke-opacity:1"
           id="path4309"
           inkscape:connector-curvature="0" /></g><g
         id="g4311"
         transform="matrix(1,0,0,-1,0,536.40552)"><path
           d="M 393.203,262.945 C 483.984,222.141 523.457,194.289 592.441,145.16"
           style="fill:none;stroke:#000000;stroke-width:0.80000001;stroke-linecap:butt;stroke-linejoin:miter;stroke-miterlimit:4;stroke-dasharray:none;stroke-opacity:1"
           id="path4313"
           inkscape:connector-curvature="0" /></g><g
         id="g4315"
         transform="matrix(1,0,0,-1,0,536.40552)"><path
           d="M 597.945,291.188 C 576.262,231.605 550.66,126.316 536.43,70.094 379.758,176.086 368.352,180.867 206.875,231.941 187.434,325.789 188.789,371.137 139.824,436.77"
           style="fill:none;stroke:#0000ff;stroke-width:4.03200006;stroke-linecap:butt;stroke-linejoin:miter;stroke-miterlimit:4;stroke-dasharray:16.128, 8.064;stroke-dashoffset:0;stroke-opacity:1"
           id="path4317"
           inkscape:connector-curvature="0" /></g><text
         transform="matrix(1,0,0,-1,179.23125,122.82924)"
         style="font-variant:normal;font-weight:normal;font-size:32px;font-family:'Times New Roman';-inkscape-font-specification:TimesNewRomanPSMT;writing-mode:lr-tb;fill:#000000;fill-opacity:1;fill-rule:nonzero;stroke:none"
         id="text4319"><tspan
           x="0 16"
           y="0"
           sodipodi:role="line"
           id="tspan4321">02</tspan><tspan
           x="9.0626564 25.062656"
           y="-196.64706"
           sodipodi:role="line"
           id="tspan4323">03</tspan></text>
<g
         id="g4325"
         transform="matrix(-1,0,0,-1,0,536.40552)"><path
           d="m -527.637,72.051 c 0,4.418 -3.582,8 -8,8 -4.418,0 -8,-3.582 -8,-8 0,-4.418 3.582,-8 8,-8 4.418,0 8,3.582 8,8 z"
           style="fill:#000000;fill-opacity:1;fill-rule:evenodd;stroke:#000000;stroke-width:1;stroke-linecap:butt;stroke-linejoin:miter;stroke-miterlimit:4;stroke-dasharray:none;stroke-opacity:1"
           id="path4327"
           inkscape:connector-curvature="0" /></g><text
         transform="matrix(1,0,0,-1,549.8605,464.63529)"
         style="font-variant:normal;font-weight:normal;font-size:32px;font-family:'Times New Roman';-inkscape-font-specification:TimesNewRomanPSMT;writing-mode:lr-tb;fill:#000000;fill-opacity:1;fill-rule:nonzero;stroke:none"
         id="text4329"><tspan
           x="0 16"
           y="0"
           sodipodi:role="line"
           id="tspan4331">04</tspan></text>
<g
         id="g4333"
         transform="matrix(-1,0,0,-1,0,536.40552)"><path
           d="m -499.824,65.73 c 0,4.418 -3.582,8 -8,8 -4.418,0 -8,-3.582 -8,-8 0,-4.418 3.582,-8 8,-8 4.418,0 8,3.582 8,8 z"
           style="fill:#000000;fill-opacity:1;fill-rule:evenodd;stroke:#000000;stroke-width:1;stroke-linecap:butt;stroke-linejoin:miter;stroke-miterlimit:4;stroke-dasharray:none;stroke-opacity:1"
           id="path4335"
           inkscape:connector-curvature="0" /></g><g
         id="g4337"
         transform="matrix(-1,0,0,-1,0,536.40552)"><path
           d="m -499.824,202.617 c 0,4.422 -3.582,8 -8,8 -4.418,0 -8,-3.578 -8,-8 0,-4.418 3.582,-8 8,-8 4.418,0 8,3.582 8,8 z"
           style="fill:#000000;fill-opacity:1;fill-rule:evenodd;stroke:#000000;stroke-width:1;stroke-linecap:butt;stroke-linejoin:miter;stroke-miterlimit:4;stroke-dasharray:none;stroke-opacity:1"
           id="path4339"
           inkscape:connector-curvature="0" /></g><g
         id="g4341"
         transform="matrix(-1,0,0,-1,0,536.40552)"><path
           d="m -163.113,383.047 c 0,4.418 -3.582,8 -8,8 -4.418,0 -8,-3.582 -8,-8 0,-4.418 3.582,-8 8,-8 4.418,0 8,3.582 8,8 z"
           style="fill:#000000;fill-opacity:1;fill-rule:evenodd;stroke:#000000;stroke-width:1;stroke-linecap:butt;stroke-linejoin:miter;stroke-miterlimit:4;stroke-dasharray:none;stroke-opacity:1"
           id="path4343"
           inkscape:connector-curvature="0" /></g><g
         id="g4345"
         transform="matrix(-1,0,0,-1,0,536.40552)"><path
           d="m -131.824,385.73 c 0,4.418 -3.582,8 -8,8 -4.418,0 -8,-3.582 -8,-8 0,-4.418 3.582,-8 8,-8 4.418,0 8,3.582 8,8 z"
           style="fill:#000000;fill-opacity:1;fill-rule:evenodd;stroke:#000000;stroke-width:1;stroke-linecap:butt;stroke-linejoin:miter;stroke-miterlimit:4;stroke-dasharray:none;stroke-opacity:1"
           id="path4347"
           inkscape:connector-curvature="0" /></g><g
         id="g4349"
         transform="matrix(-1,0,0,-1,0,536.40552)"><path
           d="m -131.824,438.531 c 0,4.418 -3.582,8 -8,8 -4.418,0 -8,-3.582 -8,-8 0,-4.418 3.582,-8 8,-8 4.418,0 8,3.582 8,8 z"
           style="fill:#000000;fill-opacity:1;fill-rule:evenodd;stroke:#000000;stroke-width:1;stroke-linecap:butt;stroke-linejoin:miter;stroke-miterlimit:4;stroke-dasharray:none;stroke-opacity:1"
           id="path4351"
           inkscape:connector-curvature="0" /></g><g
         id="g4353"
         transform="matrix(-1,0,0,-1,0,536.40552)"><path
           d="m -200.098,231.352 c 0,4.418 -3.578,8 -8,8 -4.418,0 -8,-3.582 -8,-8 0,-4.418 3.582,-8 8,-8 4.422,0 8,3.582 8,8 z"
           style="fill:#000000;fill-opacity:1;fill-rule:evenodd;stroke:#000000;stroke-width:1;stroke-linecap:butt;stroke-linejoin:miter;stroke-miterlimit:4;stroke-dasharray:none;stroke-opacity:1"
           id="path4355"
           inkscape:connector-curvature="0" /></g><g
         id="g4357"
         transform="matrix(-1,0,0,-1,0,536.40552)"><path
           d="m -131.824,249.688 c 0,4.417 -3.582,8 -8,8 -4.418,0 -8,-3.583 -8,-8 0,-4.422 3.582,-8 8,-8 4.418,0 8,3.578 8,8 z"
           style="fill:#000000;fill-opacity:1;fill-rule:evenodd;stroke:#000000;stroke-width:1;stroke-linecap:butt;stroke-linejoin:miter;stroke-miterlimit:4;stroke-dasharray:none;stroke-opacity:1"
           id="path4359"
           inkscape:connector-curvature="0" /></g><text
         transform="matrix(1,0,0,-1,592.93403,206.13139)"
         style="font-variant:normal;font-weight:normal;font-size:32px;font-family:'Times New Roman';-inkscape-font-specification:TimesNewRomanPSMT;writing-mode:lr-tb;fill:#000000;fill-opacity:1;fill-rule:nonzero;stroke:none"
         id="text4361"><tspan
           x="0"
           y="0"
           id="tspan4363">0</tspan></text>
<text
         transform="matrix(1,0,0,-1,608.93403,206.13139)"
         style="font-style:italic;font-variant:normal;font-size:32px;font-family:'Times New Roman';-inkscape-font-specification:TimesNewRomanPS-ItalicMT;writing-mode:lr-tb;fill:#000000;fill-opacity:1;fill-rule:nonzero;stroke:none"
         id="text4365"><tspan
           x="0"
           y="0"
           id="tspan4367">es</tspan></text>
<g
         id="g4369"
         transform="matrix(-1,0,0,-1,0,536.40552)"><path
           d="m -590.117,292.652 c 0,4.418 -3.582,8 -8,8 -4.418,0 -8,-3.582 -8,-8 0,-4.418 3.582,-8 8,-8 4.418,0 8,3.582 8,8 z"
           style="fill:#000000;fill-opacity:1;fill-rule:evenodd;stroke:#000000;stroke-width:1;stroke-linecap:butt;stroke-linejoin:miter;stroke-miterlimit:4;stroke-dasharray:none;stroke-opacity:1"
           id="path4371"
           inkscape:connector-curvature="0" /></g><text
         transform="matrix(1,0,0,-1,577.17188,353.1485)"
         style="font-variant:normal;font-weight:normal;font-size:32px;font-family:'Times New Roman';-inkscape-font-specification:TimesNewRomanPSMT;writing-mode:lr-tb;fill:#000000;fill-opacity:1;fill-rule:nonzero;stroke:none"
         id="text4373"><tspan
           x="0 16"
           y="0"
           sodipodi:role="line"
           id="tspan4375">05</tspan></text>
<g
         id="g4377"
         transform="matrix(-1,0,0,-1,0,536.40552)"><path
           d="m -551.156,168.977 c 0,4.418 -3.582,8 -8,8 -4.418,0 -8,-3.582 -8,-8 0,-4.418 3.582,-8 8,-8 4.418,0 8,3.582 8,8 z"
           style="fill:#000000;fill-opacity:1;fill-rule:evenodd;stroke:#000000;stroke-width:1;stroke-linecap:butt;stroke-linejoin:miter;stroke-miterlimit:4;stroke-dasharray:none;stroke-opacity:1"
           id="path4379"
           inkscape:connector-curvature="0" /></g><g
         id="g4381"
         transform="matrix(1,0,0,-1,0,536.40552)"><path
           d="m 597.316,294.336 c -25.382,13.648 -52.343,27.926 -89.492,46.281"
           style="fill:#0000ff;fill-opacity:1;fill-rule:evenodd;stroke:#0000ff;stroke-width:4;stroke-linecap:butt;stroke-linejoin:miter;stroke-miterlimit:4;stroke-dasharray:16, 8;stroke-dashoffset:0;stroke-opacity:1"
           id="path4383"
           inkscape:connector-curvature="0" /></g><g
         id="g4385"
         transform="matrix(-1,0,0,-1,0,536.40552)"><path
           d="m -499.824,340.93 c 0,4.418 -3.582,8 -8,8 -4.418,0 -8,-3.582 -8,-8 0,-4.418 3.582,-8 8,-8 4.418,0 8,3.582 8,8 z"
           style="fill:#000000;fill-opacity:1;fill-rule:evenodd;stroke:#000000;stroke-width:1;stroke-linecap:butt;stroke-linejoin:miter;stroke-miterlimit:4;stroke-dasharray:none;stroke-opacity:1"
           id="path4387"
           inkscape:connector-curvature="0" /></g></g></g></svg>