<?xml version="1.0" encoding="UTF-8" standalone="no"?>
<!-- Created with Inkscape (http://www.inkscape.org/) -->

<svg
   xmlns:dc="http://purl.org/dc/elements/1.1/"
   xmlns:cc="http://creativecommons.org/ns#"
   xmlns:rdf="http://www.w3.org/1999/02/22-rdf-syntax-ns#"
   xmlns:svg="http://www.w3.org/2000/svg"
   xmlns="http://www.w3.org/2000/svg"
   xmlns:sodipodi="http://sodipodi.sourceforge.net/DTD/sodipodi-0.dtd"
   xmlns:inkscape="http://www.inkscape.org/namespaces/inkscape"
   id="svg4529"
   version="1.1"
   inkscape:version="0.91 r13725"
   xml:space="preserve"
   width="938.1217"
   height="566.92676"
   viewBox="0 0 938.12169 566.92676"
   sodipodi:docname="EF.svg"><metadata
     id="metadata4535"><rdf:RDF><cc:Work
         rdf:about=""><dc:format>image/svg+xml</dc:format><dc:type
           rdf:resource="http://purl.org/dc/dcmitype/StillImage" /><dc:title></dc:title></cc:Work></rdf:RDF></metadata><defs
     id="defs4533" /><sodipodi:namedview
     pagecolor="#ffffff"
     bordercolor="#666666"
     borderopacity="1"
     objecttolerance="10"
     gridtolerance="10"
     guidetolerance="10"
     inkscape:pageopacity="0"
     inkscape:pageshadow="2"
     inkscape:window-width="2560"
     inkscape:window-height="1391"
     id="namedview4531"
     showgrid="false"
     inkscape:zoom="1.1953878"
     inkscape:cx="349.77814"
     inkscape:cy="291.64572"
     inkscape:window-x="0"
     inkscape:window-y="0"
     inkscape:window-maximized="1"
     inkscape:current-layer="g4537"
     fit-margin-top="15"
     fit-margin-left="15"
     fit-margin-right="15"
     fit-margin-bottom="5" /><g
     id="g4537"
     inkscape:groupmode="layer"
     inkscape:label="EF"
     transform="matrix(1.25,0,0,-1.25,-36.289062,585.55962)"><g
       id="g4539"><g
         id="g4541"
         transform="matrix(1,0,0,-1,0,496.44562)"><path
           d="m 80.547,46.113 0,410.625"
           style="fill:none;stroke:#000000;stroke-width:3.20000005;stroke-linecap:butt;stroke-linejoin:miter;stroke-miterlimit:4;stroke-dasharray:none;stroke-opacity:1"
           id="path4543"
           inkscape:connector-curvature="0" /></g><g
         id="g4545"
         transform="matrix(0,-1,-1,0,0,496.44562)"><path
           d="m 58.91,-80.547 6.402,-6.402 -22.402,6.402 22.402,6.399 -6.402,-6.399 z"
           style="fill:#000000;fill-opacity:1;fill-rule:evenodd;stroke:#000000;stroke-width:1.60000002;stroke-linecap:butt;stroke-linejoin:miter;stroke-miterlimit:4;stroke-dasharray:none;stroke-opacity:1"
           id="path4547"
           inkscape:connector-curvature="0" /></g><g
         id="g4549"
         transform="matrix(1,0,0,-1,0,496.44562)"><path
           d="m 65.418,440.738 696,0"
           style="fill:none;stroke:#000000;stroke-width:3.20000005;stroke-linecap:butt;stroke-linejoin:miter;stroke-miterlimit:4;stroke-dasharray:none;stroke-opacity:1"
           id="path4551"
           inkscape:connector-curvature="0" /></g><g
         id="g4553"
         transform="matrix(-1,0,0,1,0,496.44562)"><path
           d="m -748.617,-440.738 6.398,-6.403 -22.398,6.403 22.398,6.398 -6.398,-6.398 z"
           style="fill:#000000;fill-opacity:1;fill-rule:evenodd;stroke:#000000;stroke-width:1.60000002;stroke-linecap:butt;stroke-linejoin:miter;stroke-miterlimit:4;stroke-dasharray:none;stroke-opacity:1"
           id="path4555"
           inkscape:connector-curvature="0" /></g><text
         transform="matrix(0,1,1,0,62.21875,407.70626)"
         style="font-variant:normal;font-weight:normal;font-size:32px;font-family:'Times New Roman';-inkscape-font-specification:TimesNewRomanPSMT;writing-mode:lr-tb;fill:#000000;fill-opacity:1;fill-rule:nonzero;stroke:none"
         id="text4557"><tspan
           x="0 19.52"
           y="0"
           sodipodi:role="line"
           id="tspan4559">EF</tspan></text>
<text
         transform="matrix(1,0,0,-1,727.81875,18.906264)"
         style="font-variant:normal;font-weight:normal;font-size:32px;font-family:'Times New Roman';-inkscape-font-specification:TimesNewRomanPSMT;writing-mode:lr-tb;fill:#000000;fill-opacity:1;fill-rule:nonzero;stroke:none"
         id="text4561"><tspan
           x="0"
           y="0"
           id="tspan4563">M</tspan></text>
<g
         id="g4565"
         transform="matrix(1,0,0,-1,0,496.44562)"><path
           d="m 102.398,416.734 c 1.247,-42.984 5.34,-85.886 12.247,-128.328 9.375,-57.609 24.062,-114.726 48.906,-167.547 3.609,-7.668 7.469,-15.304 12.769,-21.918 5.301,-6.613 12.192,-12.199 20.297,-14.671 8.34,-2.543 17.547,-1.602 25.547,1.859 8,3.461 14.828,9.328 20.137,16.242 10.617,13.828 15.105,31.277 19.07,48.254 19.996,85.605 33.059,172.832 39.02,260.539"
           style="fill:none;stroke:#000000;stroke-width:3.12411404;stroke-linecap:butt;stroke-linejoin:miter;stroke-miterlimit:4;stroke-dasharray:none;stroke-opacity:1"
           id="path4567"
           inkscape:connector-curvature="0" /></g><text
         transform="matrix(1,0,0,-1,213.77559,423.38466)"
         style="font-variant:normal;font-weight:normal;font-size:32px;font-family:'Times New Roman';-inkscape-font-specification:TimesNewRomanPSMT;writing-mode:lr-tb;fill:#000000;fill-opacity:1;fill-rule:nonzero;stroke:none"
         id="text4569"><tspan
           x="0 12.448"
           y="0"
           sodipodi:role="line"
           id="tspan4571">sl</tspan><tspan
           x="302.22025 325.32425 334.18826 343.05225 351.91626 360.78024 376.68427 392.68427 406.86026 414.86026 425.51627 441.51627 466.38025"
           y="52.517151"
           sodipodi:role="line"
           id="tspan4573">Altitude (km)</tspan></text>
<g
         id="g4575"
         transform="matrix(1,0,0,-1,0,496.44562)"><path
           d="m 216.219,411.109 c 1.531,-36.539 5.633,-72.968 12.258,-108.937 9.132,-49.567 23.316,-98.832 48.949,-142.231 3.949,-6.683 8.199,-13.265 13.586,-18.855 5.386,-5.594 12.008,-10.195 19.511,-12.207 7.629,-2.043 15.879,-1.301 23.262,1.5 7.387,2.805 13.93,7.59 19.328,13.359 10.789,11.535 16.887,26.602 22.219,41.473 25.387,70.809 38.656,145.949 39.051,221.168"
           style="fill:none;stroke:#000000;stroke-width:2.87968898;stroke-linecap:butt;stroke-linejoin:miter;stroke-miterlimit:4;stroke-dasharray:none;stroke-opacity:1"
           id="path4577"
           inkscape:connector-curvature="0" /></g><g
         id="g4579"
         transform="matrix(1,0,0,-1,0,496.44562)"><path
           d="m 320.641,413.738 c 1.718,-31.918 5.921,-63.699 12.554,-94.961 9.325,-43.929 23.836,-87.586 50.141,-123.984 4.328,-5.992 8.992,-11.801 14.57,-16.652 5.578,-4.852 12.129,-8.735 19.328,-10.426 7.258,-1.707 14.969,-1.113 22.055,1.215 7.082,2.324 13.555,6.336 19.137,11.277 11.164,9.887 18.66,23.203 25.191,36.609 29.035,59.622 42.918,126.547 39.996,192.797"
           style="fill:none;stroke:#000000;stroke-width:2.72105503;stroke-linecap:butt;stroke-linejoin:miter;stroke-miterlimit:4;stroke-dasharray:none;stroke-opacity:1"
           id="path4581"
           inkscape:connector-curvature="0" /></g><g
         id="g4583"
         transform="matrix(1,0,0,-1,0,496.44562)"><path
           d="m 444.59,405.59 c 10.957,-42.34 17.566,-87.602 36.129,-124.828 14.265,-32.512 37.496,-48.942 68.562,-51.309 34.215,2.387 51.211,31.977 58.567,45.656 24.05,53.2 30.375,78.618 38.648,122.094"
           style="fill:none;stroke:#000000;stroke-width:3.16789794;stroke-linecap:butt;stroke-linejoin:miter;stroke-miterlimit:4;stroke-dasharray:none;stroke-opacity:1"
           id="path4585"
           inkscape:connector-curvature="0" /></g><g
         id="g4587"
         transform="matrix(1,0,0,-1,0,496.44562)"><path
           d="m 517.762,408.199 c 11.949,-34.894 27.922,-72.199 48.16,-102.875 15.558,-26.793 32.129,-40.336 66.004,-42.285 37.312,1.965 49.777,26.352 57.797,37.625 26.226,43.84 39.191,64.793 48.215,100.621"
           style="fill:none;stroke:#000000;stroke-width:3.00313401;stroke-linecap:butt;stroke-linejoin:miter;stroke-miterlimit:4;stroke-dasharray:none;stroke-opacity:1"
           id="path4589"
           inkscape:connector-curvature="0" /></g><text
         transform="matrix(1,0,0,-1,319.59497,376.87804)"
         style="font-variant:normal;font-weight:normal;font-size:32px;font-family:'Times New Roman';-inkscape-font-specification:TimesNewRomanPSMT;writing-mode:lr-tb;fill:#000000;fill-opacity:1;fill-rule:nonzero;stroke:none"
         id="text4591"><tspan
           x="0"
           y="0"
           id="tspan4593">3</tspan><tspan
           x="108.01149"
           y="38.670498"
           id="tspan4595">6</tspan><tspan
           x="225.28902"
           y="101.85728"
           id="tspan4597">9</tspan><tspan
           x="334.30841 349.12442"
           y="138.84579"
           sodipodi:role="line"
           id="tspan4599">11</tspan><tspan
           x="303.30405"
           y="357.97177"
           id="tspan4601">1</tspan></text>
<g
         id="g4603"
         transform="matrix(1,0,0,-1,0,496.44562)"><path
           d="m 630.219,433.5 0,15.238"
           style="fill:none;stroke:#000000;stroke-width:0.95617598;stroke-linecap:butt;stroke-linejoin:miter;stroke-miterlimit:4;stroke-dasharray:none;stroke-opacity:1"
           id="path4605"
           inkscape:connector-curvature="0" /></g></g></g></svg>