<?xml version="1.0" encoding="UTF-8" standalone="no"?>
<!-- Created with Inkscape (http://www.inkscape.org/) -->

<svg
   xmlns:dc="http://purl.org/dc/elements/1.1/"
   xmlns:cc="http://creativecommons.org/ns#"
   xmlns:rdf="http://www.w3.org/1999/02/22-rdf-syntax-ns#"
   xmlns:svg="http://www.w3.org/2000/svg"
   xmlns="http://www.w3.org/2000/svg"
   xmlns:sodipodi="http://sodipodi.sourceforge.net/DTD/sodipodi-0.dtd"
   xmlns:inkscape="http://www.inkscape.org/namespaces/inkscape"
   id="svg4353"
   version="1.1"
   inkscape:version="0.91 r13725"
   xml:space="preserve"
   width="1115.5273"
   height="740.94019"
   viewBox="0 0 1115.5273 740.94019"
   sodipodi:docname="LiftCurve.svg"><metadata
     id="metadata4359"><rdf:RDF><cc:Work
         rdf:about=""><dc:format>image/svg+xml</dc:format><dc:type
           rdf:resource="http://purl.org/dc/dcmitype/StillImage" /><dc:title></dc:title></cc:Work></rdf:RDF></metadata><defs
     id="defs4357" /><sodipodi:namedview
     pagecolor="#ffffff"
     bordercolor="#666666"
     borderopacity="1"
     objecttolerance="10"
     gridtolerance="10"
     guidetolerance="10"
     inkscape:pageopacity="0"
     inkscape:pageshadow="2"
     inkscape:window-width="1440"
     inkscape:window-height="851"
     id="namedview4355"
     showgrid="false"
     fit-margin-top="50"
     fit-margin-left="50"
     fit-margin-right="50"
     fit-margin-bottom="15"
     inkscape:zoom="0.67454459"
     inkscape:cx="468.78572"
     inkscape:cy="358.9727"
     inkscape:window-x="0"
     inkscape:window-y="0"
     inkscape:window-maximized="1"
     inkscape:current-layer="g4361" /><g
     id="g4361"
     inkscape:groupmode="layer"
     inkscape:label="liftCurve"
     transform="matrix(1.25,0,0,-1.25,49.984643,725.93475)"><g
       transform="matrix(1,0,0,-1,0,550.34766)"
       id="g4365"><path
         inkscape:connector-curvature="0"
         id="path4367"
         style="fill:none;stroke:#000000;stroke-width:2.4000001;stroke-linecap:butt;stroke-linejoin:miter;stroke-miterlimit:4;stroke-dasharray:none;stroke-opacity:1"
         d="m 168.691,23.812 0,526.54" /></g><g
       transform="matrix(0,-1,-1,0,0,550.34766)"
       id="g4369"><path
         inkscape:connector-curvature="0"
         id="path4371"
         style="fill:#000000;fill-opacity:1;fill-rule:evenodd;stroke:#000000;stroke-width:1.20000005;stroke-linecap:butt;stroke-linejoin:miter;stroke-miterlimit:4;stroke-dasharray:none;stroke-opacity:1"
         d="m 33.414,-168.691 4.797,-4.801 -16.797,4.801 16.797,4.8 -4.797,-4.8 z" /></g><g
       transform="matrix(1,0,0,-1,0,550.34766)"
       id="g4373"><path
         inkscape:connector-curvature="0"
         id="path4375"
         style="fill:none;stroke:#000000;stroke-width:2.4000001;stroke-linecap:butt;stroke-linejoin:miter;stroke-miterlimit:4;stroke-dasharray:none;stroke-opacity:1"
         d="m 2.32,472.23 651.973,0" /></g><g
       transform="matrix(-1,0,0,1,0,550.34766)"
       id="g4377"><path
         inkscape:connector-curvature="0"
         id="path4379"
         style="fill:#000000;fill-opacity:1;fill-rule:evenodd;stroke:#000000;stroke-width:1.20000005;stroke-linecap:butt;stroke-linejoin:miter;stroke-miterlimit:4;stroke-dasharray:none;stroke-opacity:1"
         d="m -644.691,-472.23 4.8,-4.797 -16.8,4.797 16.8,4.8 -4.8,-4.8 z" /></g><text
       id="text4381"
       style="font-style:italic;font-variant:normal;font-size:32px;font-family:'Times New Roman Italic';-inkscape-font-specification:TimesNewRomanPS-ItalicMT;writing-mode:lr-tb;fill:#000000;fill-opacity:1;fill-rule:nonzero;stroke:none"
       transform="scale(1,-1)"
       x="122.46013"
       y="-519.07593"><tspan
         style="font-style:italic;font-variant:normal;font-weight:normal;font-stretch:normal;font-family:'Times New Roman';-inkscape-font-specification:'Times New Roman,  Italic'"
         id="tspan4383"
         y="-519.07593"
         x="122.46013">C<tspan
   id="tspan5037"
   style="font-size:51.99999809%;baseline-shift:sub">L</tspan></tspan></text>
<text
       id="text4387"
       style="font-variant:normal;font-weight:normal;font-size:56px;font-family:'Times New Roman';-inkscape-font-specification:TimesNewRomanPSMT;writing-mode:lr-tb;fill:#000000;fill-opacity:1;fill-rule:nonzero;stroke:none"
       transform="scale(1,-1)"
       x="634.92004"
       y="-41.935257"><tspan
         style="font-style:italic;font-variant:normal;font-weight:normal;font-stretch:normal;font-size:32px;font-family:'Times New Roman';-inkscape-font-specification:'Times New Roman, Italic'"
         id="tspan4389"
         y="-41.935257"
         x="634.92004">α</tspan></text>
<g
       transform="matrix(1,0,0,-1,0,550.34766)"
       id="g4391"><path
         inkscape:connector-curvature="0"
         id="path4393"
         style="fill:none;stroke:#000000;stroke-width:3.53240108;stroke-linecap:butt;stroke-linejoin:miter;stroke-miterlimit:4;stroke-dasharray:none;stroke-opacity:1"
         d="M 111.801,529.707 405.305,233.848" /></g><g
       transform="matrix(1,0,0,-1,0,550.34766)"
       id="g4395"><path
         inkscape:connector-curvature="0"
         id="path4397"
         style="fill:none;stroke:#000000;stroke-width:4;stroke-linecap:butt;stroke-linejoin:miter;stroke-miterlimit:4;stroke-dasharray:none;stroke-opacity:1"
         d="M 1.422,526.727 436.938,93.969" /></g><g
       transform="matrix(1,0,0,-1,0,550.34766)"
       id="g4399"><path
         inkscape:connector-curvature="0"
         id="path4401"
         style="fill:none;stroke:#000000;stroke-width:4;stroke-linecap:butt;stroke-linejoin:miter;stroke-miterlimit:4;stroke-dasharray:none;stroke-opacity:1"
         d="m 436.641,94.328 c 10.25,-10.375 22.824,-18.441 36.527,-23.433 22.754,-8.286 48.59,-7.821 70.988,1.378 6.285,2.582 12.301,5.821 17.918,9.649" /></g><g
       transform="matrix(1,0,0,-1,0,550.34766)"
       id="g4403"><path
         inkscape:connector-curvature="0"
         id="path4405"
         style="fill:none;stroke:#000000;stroke-width:4;stroke-linecap:butt;stroke-linejoin:miter;stroke-miterlimit:4;stroke-dasharray:none;stroke-opacity:1"
         d="m 402.594,236.934 c 13.703,-14.282 31.906,-24.18 51.344,-27.914 17.023,-3.27 34.839,-1.852 51.343,3.445 7.801,2.504 15.324,5.863 22.399,9.996" /></g><g
       transform="matrix(1,0,0,-1,0,550.34766)"
       id="g4407"><path
         inkscape:connector-curvature="0"
         id="path4409"
         style="fill:none;stroke:#0000ff;stroke-width:1.37296402;stroke-linecap:butt;stroke-linejoin:miter;stroke-miterlimit:4;stroke-dasharray:8.237786, 8.237786;stroke-dashoffset:0;stroke-opacity:1"
         d="M 111.711,524.328 536.586,98.074" /></g><g
       transform="matrix(1,0,0,-1,-8,540.74766)"
       id="g4411"><path
         inkscape:connector-curvature="0"
         id="path4413"
         style="fill:none;stroke:#000000;stroke-width:0.80000001;stroke-linecap:butt;stroke-linejoin:miter;stroke-miterlimit:4;stroke-dasharray:none;stroke-opacity:1"
         d="m 486.055,148.57 34.113,0 0,-34.632" /></g><text
       id="text4415"
       style="font-variant:normal;font-weight:normal;font-size:32px;font-family:'Times New Roman';-inkscape-font-specification:TimesNewRomanPSMT;writing-mode:lr-tb;fill:#000000;fill-opacity:1;fill-rule:nonzero;stroke:none"
       transform="scale(1,-1)"
       x="521.20654"
       y="-395.86185"><tspan
         id="tspan4417"
         sodipodi:role="line"
         y="-395.86185"
         x="521.20654 537.01459">∂<tspan
   id="tspan5043"
   style="font-style:italic">C</tspan></tspan></text>
<text
       id="text4419"
       style="font-variant:normal;font-weight:normal;font-size:20.80029297px;font-family:'Times New Roman';-inkscape-font-specification:TimesNewRomanPSMT;writing-mode:lr-tb;fill:#000000;fill-opacity:1;fill-rule:nonzero;stroke:none"
       transform="scale(1,-1)"
       x="558.39404"
       y="-389.46185"><tspan
         style="font-style:italic"
         id="tspan4421"
         y="-389.46185"
         x="558.39404">L</tspan></text>
<text
       id="text4423"
       style="font-variant:normal;font-weight:normal;font-size:32px;font-family:'Times New Roman';-inkscape-font-specification:TimesNewRomanPSMT;writing-mode:lr-tb;fill:#000000;fill-opacity:1;fill-rule:nonzero;stroke:none"
       transform="scale(1,-1)"
       x="571.10986"
       y="-395.86185"><tspan
         id="tspan4425"
         sodipodi:role="line"
         y="-395.86185"
         x="571.10986 579.97388 595.78186">/<tspan
   style="font-style:italic"
   id="tspan5121">∂α</tspan></tspan></text>
<text
       id="text4427"
       style="font-variant:normal;font-weight:normal;font-size:32px;font-family:'Bitstream Vera Sans';-inkscape-font-specification:BitstreamVeraSans-Roman;writing-mode:lr-tb;fill:#000000;fill-opacity:1;fill-rule:nonzero;stroke:none"
       transform="scale(1,-1)"
       x="622.66187"
       y="-395.86185"><tspan
         style="font-style:normal;font-variant:normal;font-weight:normal;font-stretch:normal;font-family:'Times New Roman';-inkscape-font-specification:'Times New Roman, '"
         id="tspan4429"
         sodipodi:role="line"
         y="-395.86185"
         x="622.66187 649.44586 669.79785">=2π</tspan></text>
<text
       id="text4431"
       style="font-variant:normal;font-weight:normal;font-size:48px;font-family:'Times New Roman';-inkscape-font-specification:TimesNewRomanPSMT;writing-mode:lr-tb;fill:#000000;fill-opacity:1;fill-rule:nonzero;stroke:none"
       transform="scale(1,-1)"
       x="35.391117"
       y="-31.844652"><tspan
         style="font-style:italic;font-variant:normal;font-weight:normal;font-stretch:normal;font-size:32px;font-family:'Times New Roman';-inkscape-font-specification:'Times New Roman, Italic'"
         id="tspan4433"
         y="-31.844652"
         x="35.391117">α<tspan
   style="font-size:51.99999809%;baseline-shift:sub"
   id="tspan5123">L</tspan> = 0</tspan></text>
<g
       transform="matrix(1.2299171,0,0,-1.6597808,-125.13625,683.89483)"
       id="g4443"><path
         inkscape:connector-curvature="0"
         id="path4445"
         style="fill:#9e9e9e;fill-opacity:1;fill-rule:nonzero;stroke:#000000;stroke-width:1.60000002;stroke-linecap:butt;stroke-linejoin:miter;stroke-miterlimit:4;stroke-dasharray:none;stroke-opacity:1"
         d="m 573.863,214.719 c 0.867,-1.793 2.024,-3.446 3.41,-4.875 2.93,-3.012 6.829,-4.961 10.891,-6.035 4.063,-1.075 8.301,-1.317 12.5,-1.274 11.387,0.113 22.672,2.262 33.629,5.36 6.773,1.914 13.445,4.195 19.98,6.824" /></g><g
       transform="matrix(1.2299171,0,0,-1.6597808,-125.13625,683.89483)"
       id="g4447"><path
         inkscape:connector-curvature="0"
         id="path4449"
         style="fill:#9e9e9e;fill-opacity:1;fill-rule:nonzero;stroke:#000000;stroke-width:1.60000002;stroke-linecap:butt;stroke-linejoin:miter;stroke-miterlimit:4;stroke-dasharray:none;stroke-opacity:1"
         d="m 573.863,214.355 c 0.867,1.793 2.024,3.446 3.41,4.872 2.93,3.015 6.829,4.964 10.891,6.039 4.063,1.074 8.301,1.312 12.5,1.273 11.387,-0.113 22.672,-2.266 33.629,-5.363 6.773,-1.914 13.445,-4.192 19.98,-6.821" /></g><g
       transform="matrix(1.4259957,0,0,-1.6234485,-197.7509,575.68336)"
       id="g4455"><path
         inkscape:connector-curvature="0"
         id="path4457"
         style="fill:#9e9e9e;fill-opacity:1;fill-rule:nonzero;stroke:#000000;stroke-width:1.39334905;stroke-linecap:butt;stroke-linejoin:miter;stroke-miterlimit:4;stroke-dasharray:none;stroke-opacity:1"
         d="m 575.469,55.453 c -0.828,-1 -1.391,-2.211 -1.66,-3.48 -0.266,-1.27 -0.243,-2.594 0.039,-3.864 0.562,-2.531 2.129,-4.781 4.14,-6.418 2.012,-1.64 4.45,-2.703 6.957,-3.359 2.512,-0.656 5.106,-0.922 7.696,-1.105 14.488,-1.012 29.218,0.664 42.925,5.468 9.207,3.227 17.922,7.852 25.754,13.668 -13.156,-5.953 -27.715,-8.785 -42.144,-8.203 -7.231,0.297 -14.531,1.469 -21.074,4.559 -3.735,1.765 -7.215,4.148 -11.196,5.265 -1.988,0.559 -4.097,0.786 -6.129,0.418 -2.035,-0.367 -3.988,-1.363 -5.308,-2.949" /></g><g
       transform="matrix(1,0,0,-1,0,550.34766)"
       id="g4463"><path
         inkscape:connector-curvature="0"
         id="path4465"
         style="fill:none;stroke:#000000;stroke-width:1.60000002;stroke-linecap:butt;stroke-linejoin:miter;stroke-miterlimit:4;stroke-dasharray:none;stroke-opacity:1"
         d="m 311.344,329.754 34.113,0 0,-34.633" /></g><text
       id="text4467"
       style="font-variant:normal;font-weight:normal;font-size:32px;font-family:'Times New Roman';-inkscape-font-specification:TimesNewRomanPSMT;writing-mode:lr-tb;fill:#000000;fill-opacity:1;fill-rule:nonzero;stroke:none"
       transform="scale(1,-1)"
       x="358.20987"
       y="-228.32512"><tspan
         id="tspan4469"
         sodipodi:role="line"
         y="-228.32512"
         x="358.20987 374.01785">∂<tspan
   id="tspan5041"
   style="font-style:italic">C</tspan></tspan></text>
<text
       id="text4471"
       style="font-variant:normal;font-weight:normal;font-size:20.80029297px;font-family:'Times New Roman';-inkscape-font-specification:TimesNewRomanPSMT;writing-mode:lr-tb;fill:#000000;fill-opacity:1;fill-rule:nonzero;stroke:none"
       transform="scale(1,-1)"
       x="395.39737"
       y="-221.92513"><tspan
         style="font-style:italic"
         id="tspan4473"
         y="-221.92513"
         x="395.39737">L</tspan></text>
<text
       id="text4475"
       style="font-variant:normal;font-weight:normal;font-size:32px;font-family:'Times New Roman';-inkscape-font-specification:TimesNewRomanPSMT;writing-mode:lr-tb;fill:#000000;fill-opacity:1;fill-rule:nonzero;stroke:none"
       transform="scale(1,-1)"
       x="408.11316"
       y="-228.32512"><tspan
         id="tspan4477"
         sodipodi:role="line"
         y="-228.32512"
         x="408.11316 416.97717 432.78516">/∂<tspan
   id="tspan5039"
   style="font-style:italic">α</tspan></tspan></text>
<g
       transform="matrix(1,0,0,-1,-1.6,550.34766)"
       id="g4479"><path
         inkscape:connector-curvature="0"
         id="path4481"
         style="fill:none;stroke:#ff0000;stroke-width:3.20533109;stroke-linecap:butt;stroke-linejoin:miter;stroke-miterlimit:4;stroke-dasharray:none;stroke-opacity:1"
         d="m 400.418,193.406 0,85.742" /></g><text
       id="text4483"
       style="font-variant:normal;font-weight:normal;font-size:32px;font-family:'Times New Roman';-inkscape-font-specification:TimesNewRomanPSMT;writing-mode:lr-tb;fill:#ff0000;fill-opacity:1;fill-rule:nonzero;stroke:none"
       transform="scale(1,-1)"
       x="406.41391"
       y="-273.78839"><tspan
         id="tspan4485"
         sodipodi:role="line"
         y="-273.78839"
         x="406.41391 424.2059 433.06992 447.24591 456.10989">Stall</tspan></text>
<g
       transform="matrix(1,0,0,-1,0,550.34766)"
       id="g4487"><path
         inkscape:connector-curvature="0"
         id="path4489"
         style="fill:none;stroke:#ff0000;stroke-width:3.20533109;stroke-linecap:butt;stroke-linejoin:miter;stroke-miterlimit:4;stroke-dasharray:none;stroke-opacity:1"
         d="m 455,28.688 0,85.746" /></g><g
       transform="matrix(1,0,0,-1,0,550.34766)"
       id="g4491"><path
         inkscape:connector-curvature="0"
         id="path4493"
         style="fill:none;stroke:#000000;stroke-width:2.21773791;stroke-linecap:butt;stroke-linejoin:miter;stroke-miterlimit:4;stroke-dasharray:none;stroke-opacity:1"
         d="m 55.875,452.746 0,37.824" /></g><text
       xml:space="preserve"
       style="font-style:normal;font-weight:normal;font-size:11.19999981px;line-height:125%;font-family:Sans;letter-spacing:0px;word-spacing:8px;fill:#000000;fill-opacity:1;stroke:none;stroke-width:1px;stroke-linecap:butt;stroke-linejoin:miter;stroke-opacity:1"
       x="573.99469"
       y="-447.26736"
       id="text5047"
       sodipodi:linespacing="125%"
       transform="scale(1,-1)"><tspan
         sodipodi:role="line"
         id="tspan5049"
         x="573.99469"
         y="-447.26736"
         style="font-style:normal;font-variant:normal;font-weight:normal;font-stretch:normal;font-size:28px;font-family:'Times New Roman';-inkscape-font-specification:'Times New Roman, '">Assymmetric Airfoil</tspan></text>
<text
       xml:space="preserve"
       style="font-style:normal;font-weight:normal;font-size:11.19999981px;line-height:125%;font-family:Sans;letter-spacing:0px;word-spacing:8px;fill:#000000;fill-opacity:1;stroke:none;stroke-width:1px;stroke-linecap:butt;stroke-linejoin:miter;stroke-opacity:1"
       x="529.53119"
       y="-272.26773"
       id="text5051"
       sodipodi:linespacing="125%"
       transform="scale(1,-1)"><tspan
         sodipodi:role="line"
         id="tspan5053"
         x="529.53119"
         y="-272.26773"
         style="font-style:normal;font-variant:normal;font-weight:normal;font-stretch:normal;font-size:28px;font-family:'Times New Roman';-inkscape-font-specification:'Times New Roman, '">Symmetric Airfoil</tspan></text>
<text
       xml:space="preserve"
       style="font-style:normal;font-weight:normal;font-size:11.19999981px;line-height:125%;font-family:Sans;letter-spacing:0px;word-spacing:8px;fill:#000000;fill-opacity:1;stroke:none;stroke-width:1px;stroke-linecap:butt;stroke-linejoin:miter;stroke-opacity:1"
       x="551.68964"
       y="47.099293"
       id="text5125"
       sodipodi:linespacing="125%"
       transform="matrix(0.71484543,0.69928249,0.69928249,-0.71484543,0,0)"><tspan
         sodipodi:role="line"
         id="tspan5127"
         x="551.68964"
         y="47.099293"
         style="font-style:normal;font-variant:normal;font-weight:normal;font-stretch:normal;font-size:32px;font-family:'Times New Roman';-inkscape-font-specification:'Times New Roman, ';fill:#0000ff">Theoretical</tspan></text>
</g></svg>