<?xml version="1.0" encoding="UTF-8" standalone="no"?>
<!-- Created with Inkscape (http://www.inkscape.org/) -->

<svg
   xmlns:dc="http://purl.org/dc/elements/1.1/"
   xmlns:cc="http://creativecommons.org/ns#"
   xmlns:rdf="http://www.w3.org/1999/02/22-rdf-syntax-ns#"
   xmlns:svg="http://www.w3.org/2000/svg"
   xmlns="http://www.w3.org/2000/svg"
   xmlns:sodipodi="http://sodipodi.sourceforge.net/DTD/sodipodi-0.dtd"
   xmlns:inkscape="http://www.inkscape.org/namespaces/inkscape"
   id="svg4637"
   version="1.1"
   inkscape:version="0.91 r13725"
   xml:space="preserve"
   width="570.3916"
   height="322.4028"
   viewBox="0 0 570.3916 322.4028"
   sodipodi:docname="mixingSchematic.svg"><metadata
     id="metadata4643"><rdf:RDF><cc:Work
         rdf:about=""><dc:format>image/svg+xml</dc:format><dc:type
           rdf:resource="http://purl.org/dc/dcmitype/StillImage" /><dc:title></dc:title></cc:Work></rdf:RDF></metadata><defs
     id="defs4641" /><sodipodi:namedview
     pagecolor="#ffffff"
     bordercolor="#666666"
     borderopacity="1"
     objecttolerance="10"
     gridtolerance="10"
     guidetolerance="10"
     inkscape:pageopacity="0"
     inkscape:pageshadow="2"
     inkscape:window-width="2027"
     inkscape:window-height="1345"
     id="namedview4639"
     showgrid="false"
     inkscape:zoom="3.6000497"
     inkscape:cx="285.1958"
     inkscape:cy="161.2014"
     inkscape:window-x="0"
     inkscape:window-y="0"
     inkscape:window-maximized="0"
     inkscape:current-layer="g4647" /><g
     id="g4645"
     inkscape:groupmode="layer"
     inkscape:label="mixingSchematic"
     transform="matrix(1.25,0,0,-1.25,0,322.4028)"><g
       id="g4647"><path
         d="m 248.633,86.887 c 0,-41.082 -12.535,-74.387 -28,-74.387 -15.465,0 -28,33.305 -28,74.387 0,41.082 12.535,74.387 28,74.387 15.465,0 28,-33.305 28,-74.387 z"
         style="fill:none;stroke:#000000;stroke-width:1;stroke-linecap:butt;stroke-linejoin:miter;stroke-miterlimit:4;stroke-dasharray:none;stroke-opacity:1"
         id="path4649"
         inkscape:connector-curvature="0" /><path
         d="m 220.844,161.2959 -145.262,0"
         style="fill:none;stroke:#000000;stroke-width:0.644216;stroke-linecap:butt;stroke-linejoin:miter;stroke-miterlimit:4;stroke-dasharray:none;stroke-opacity:1"
         id="path4651"
         inkscape:connector-curvature="0" /><path
         d="m 220.844,12.5 -145.262,0"
         style="fill:none;stroke:#000000;stroke-width:0.644216;stroke-linecap:butt;stroke-linejoin:miter;stroke-miterlimit:4;stroke-dasharray:none;stroke-opacity:1"
         id="path4653"
         inkscape:connector-curvature="0" /><path
         d="m 234.395,86.223 c 0,-10.465 -5.317,-18.949 -11.879,-18.949 -6.563,0 -11.879,8.484 -11.879,18.949 0,10.469 5.316,18.953 11.879,18.953 6.562,0 11.879,-8.484 11.879,-18.953 z"
         style="fill:none;stroke:#000000;stroke-width:0.80000001;stroke-linecap:butt;stroke-linejoin:miter;stroke-miterlimit:4;stroke-dasharray:none;stroke-opacity:1"
         id="path4655"
         inkscape:connector-curvature="0" /><path
         d="m 222.797,105.555 -133.156,0"
         style="fill:none;stroke:#000000;stroke-width:0.644216;stroke-linecap:butt;stroke-linejoin:miter;stroke-miterlimit:4;stroke-dasharray:none;stroke-opacity:1"
         id="path4657"
         inkscape:connector-curvature="0" /><path
         d="m 221.945,66.903 -133.16,0"
         style="fill:none;stroke:#000000;stroke-width:0.644216;stroke-linecap:butt;stroke-linejoin:miter;stroke-miterlimit:4;stroke-dasharray:none;stroke-opacity:1"
         id="path4659"
         inkscape:connector-curvature="0" /><path
         d="m 40,85.668 236.352,0"
         style="fill:none;stroke:#000000;stroke-width:0.69537699;stroke-linecap:butt;stroke-linejoin:miter;stroke-miterlimit:4;stroke-dasharray:5.563013, 1.390753, 0.695377, 1.390753;stroke-dashoffset:0;stroke-opacity:1"
         id="path4661"
         inkscape:connector-curvature="0" /><path
         d="M 136.789,133.555 C 94.266,93.098 149.281,-14.75 169.031,66.239"
         style="fill:none;stroke:#000000;stroke-width:0.80000001;stroke-linecap:butt;stroke-linejoin:miter;stroke-miterlimit:4;stroke-dasharray:none;stroke-opacity:1"
         id="path4663"
         inkscape:connector-curvature="0" /><path
         d="m 187.805,105.102 c 0.64,5.355 -0.266,12.762 -2.114,16.746 -14.07,30.352 -31.421,-4.062 -29.734,-36.496 2.07,-39.774 28.934,-71.586 44.027,-24.699"
         style="fill:none;stroke:#000000;stroke-width:0.80000001;stroke-linecap:butt;stroke-linejoin:miter;stroke-miterlimit:4;stroke-dasharray:none;stroke-opacity:1"
         id="path4665"
         inkscape:connector-curvature="0" /><g
         id="g4667"
         transform="matrix(-0.321922,-1,1,-0.321922,0,257.92224)"><path
           d="m 123.458,238.748 1.521,-1.522 -5.33,1.522 5.33,1.525 -1.521,-1.525 z"
           style="fill:#000000;fill-opacity:1;fill-rule:evenodd;stroke:#000000;stroke-width:0.380757;stroke-linecap:butt;stroke-linejoin:miter;stroke-miterlimit:4;stroke-dasharray:none;stroke-opacity:1"
           id="path4669"
           inkscape:connector-curvature="0" /></g><path
         d="m 54.535,85.762 41.199,0"
         style="fill:none;stroke:#000000;stroke-width:1.60000002;stroke-linecap:butt;stroke-linejoin:miter;stroke-miterlimit:4;stroke-dasharray:none;stroke-opacity:1"
         id="path4671"
         inkscape:connector-curvature="0" /><g
         id="g4673"
         transform="matrix(-1,0,0,-1,0,257.92224)"><path
           d="m -89.336,172.16 3.203,-3.199 -11.203,3.199 11.203,3.199 -3.203,-3.199 z"
           style="fill:#000000;fill-opacity:1;fill-rule:evenodd;stroke:#000000;stroke-width:0.80000001;stroke-linecap:butt;stroke-linejoin:miter;stroke-miterlimit:4;stroke-dasharray:none;stroke-opacity:1"
           id="path4675"
           inkscape:connector-curvature="0" /></g><path
         d="m 54.535,39.762 41.199,0"
         style="fill:none;stroke:#000000;stroke-width:1.60000002;stroke-linecap:butt;stroke-linejoin:miter;stroke-miterlimit:4;stroke-dasharray:none;stroke-opacity:1"
         id="path4677"
         inkscape:connector-curvature="0" /><g
         id="g4679"
         transform="matrix(-1,0,0,-1,0,257.92224)"><path
           d="m -89.336,218.16 3.203,-3.199 -11.203,3.199 11.203,3.199 -3.203,-3.199 z"
           style="fill:#000000;fill-opacity:1;fill-rule:evenodd;stroke:#000000;stroke-width:0.80000001;stroke-linecap:butt;stroke-linejoin:miter;stroke-miterlimit:4;stroke-dasharray:none;stroke-opacity:1"
           id="path4681"
           inkscape:connector-curvature="0" /></g><path
         d="m 221.445,105.485 c 18.149,3.793 56.379,10.886 66.196,26.211 2.433,3.793 -13.336,1.422 -14.438,-0.559 -1.473,0 5.438,8.156 18.367,4.137 5.137,-1.598 24.657,10.914 34.575,16.926 5.742,3.48 -17.704,7.652 -18.692,1.175 -0.203,-1.351 5.289,16.582 22.027,1.004 11.075,3.266 23.762,11.414 33.856,17.383 4.152,3.004 13.602,9.066 16.797,12.602 3.797,4.195 -11.547,14.109 -15.399,6 -5.679,-11.961 7.571,-5.832 10.2,-3.2 -0.903,-4.371 -6.18,-7.164 -10.399,-6.402 -7.629,1.527 -6.461,12.695 -0.601,16.602 5.726,3.816 13.351,0.636 19,-3.602 2,-1.5 3.41,-3.008 4.8,-4.398 1.418,-1.422 25.301,17.25 28.399,18.8"
         style="fill:none;stroke:#000000;stroke-width:0.80000001;stroke-linecap:butt;stroke-linejoin:miter;stroke-miterlimit:4;stroke-dasharray:none;stroke-opacity:1"
         id="path4683"
         inkscape:connector-curvature="0" /><path
         d="m 296.152,217.278 c -33.609,2.965 -47.222,-21.461 -26.59,-47.516"
         style="fill:none;stroke:#000000;stroke-width:0.80000001;stroke-linecap:butt;stroke-linejoin:miter;stroke-miterlimit:4;stroke-dasharray:none;stroke-opacity:1"
         id="path4685"
         inkscape:connector-curvature="0" /><g
         id="g4687"
         transform="matrix(-0.791936,1,-1,-0.791936,0,257.92224)"><path
           d="m -182.869,-122.758 1.253,-1.254 -4.39,1.254 4.393,1.256 -1.256,-1.256 z"
           style="fill:#000000;fill-opacity:1;fill-rule:evenodd;stroke:#000000;stroke-width:0.313577;stroke-linecap:butt;stroke-linejoin:miter;stroke-miterlimit:4;stroke-dasharray:none;stroke-opacity:1"
           id="path4689"
           inkscape:connector-curvature="0" /></g><text
         transform="matrix(1,0,0,-1,50.078387,96.787133)"
         style="font-style:italic;font-variant:normal;font-size:20px;font-family:'Times New Roman';-inkscape-font-specification:TimesNewRomanPS-ItalicMT;writing-mode:lr-tb;fill:#000000;fill-opacity:1;fill-rule:nonzero;stroke:none"
         id="text4691"><tspan
           x="0"
           y="0"
           id="tspan4693">U</tspan></text>
<text
         transform="matrix(1,0,0,-1,64.531512,92.787133)"
         style="font-style:italic;font-variant:normal;font-size:10.39999962px;font-family:'Times New Roman';-inkscape-font-specification:TimesNewRomanPS-ItalicMT;writing-mode:lr-tb;fill:#000000;fill-opacity:1;fill-rule:nonzero;stroke:none"
         id="text4695"><tspan
           x="0"
           y="0"
           id="tspan4697">F</tspan></text>
<text
         transform="matrix(1,0,0,-1,50.078387,49.835244)"
         style="font-style:italic;font-variant:normal;font-size:20px;font-family:'Times New Roman';-inkscape-font-specification:TimesNewRomanPS-ItalicMT;writing-mode:lr-tb;fill:#000000;fill-opacity:1;fill-rule:nonzero;stroke:none"
         id="text4699"><tspan
           x="0"
           y="0"
           id="tspan4701">U</tspan></text>
<text
         transform="matrix(1,0,0,-1,64.531512,45.835244)"
         style="font-style:italic;font-variant:normal;font-size:10.39999962px;font-family:'Times New Roman';-inkscape-font-specification:TimesNewRomanPS-ItalicMT;writing-mode:lr-tb;fill:#000000;fill-opacity:1;fill-rule:nonzero;stroke:none"
         id="text4703"><tspan
           x="0"
           y="0"
           id="tspan4705">A</tspan></text>
</g></g></svg>