<?xml version="1.0" encoding="UTF-8" standalone="no"?>
<!-- Created with Inkscape (http://www.inkscape.org/) -->

<svg
   xmlns:dc="http://purl.org/dc/elements/1.1/"
   xmlns:cc="http://creativecommons.org/ns#"
   xmlns:rdf="http://www.w3.org/1999/02/22-rdf-syntax-ns#"
   xmlns:svg="http://www.w3.org/2000/svg"
   xmlns="http://www.w3.org/2000/svg"
   xmlns:sodipodi="http://sodipodi.sourceforge.net/DTD/sodipodi-0.dtd"
   xmlns:inkscape="http://www.inkscape.org/namespaces/inkscape"
   width="1398.2052"
   height="552.68762"
   id="svg3297"
   version="1.1"
   inkscape:version="0.91 r13725"
   sodipodi:docname="thrustEquationTurbofanCV.svg">
  <defs
     id="defs3299">
    <marker
       inkscape:stockid="Arrow1Mend"
       orient="auto"
       refY="0.0"
       refX="0.0"
       id="marker6045"
       style="overflow:visible;"
       inkscape:isstock="true">
      <path
         id="path5766"
         d="M 0.0,0.0 L 5.0,-5.0 L -12.5,0.0 L 5.0,5.0 L 0.0,0.0 z "
         style="fill-rule:evenodd;stroke:#000000;stroke-width:1pt;stroke-opacity:1;fill:#000000;fill-opacity:1"
         transform="scale(0.4) rotate(180) translate(10,0)" />
    </marker>
    <marker
       inkscape:stockid="Arrow1Send"
       orient="auto"
       refY="0.0"
       refX="0.0"
       id="Arrow1Send"
       style="overflow:visible;"
       inkscape:isstock="true">
      <path
         id="path5772"
         d="M 0.0,0.0 L 5.0,-5.0 L -12.5,0.0 L 5.0,5.0 L 0.0,0.0 z "
         style="fill-rule:evenodd;stroke:#000000;stroke-width:1pt;stroke-opacity:1;fill:#000000;fill-opacity:1"
         transform="scale(0.2) rotate(180) translate(6,0)" />
    </marker>
    <inkscape:path-effect
       effect="spiro"
       id="path-effect6039"
       is_visible="true" />
    <marker
       inkscape:stockid="Arrow2Mend"
       orient="auto"
       refY="0.0"
       refX="0.0"
       id="Arrow2Mend"
       style="overflow:visible;"
       inkscape:isstock="true">
      <path
         id="path5784"
         style="fill-rule:evenodd;stroke-width:0.625;stroke-linejoin:round;stroke:#000000;stroke-opacity:1;fill:#000000;fill-opacity:1"
         d="M 8.7185878,4.0337352 L -2.2072895,0.016013256 L 8.7185884,-4.0017078 C 6.9730900,-1.6296469 6.9831476,1.6157441 8.7185878,4.0337352 z "
         transform="scale(0.6) rotate(180) translate(0,0)" />
    </marker>
    <marker
       inkscape:stockid="Arrow2Lend"
       orient="auto"
       refY="0.0"
       refX="0.0"
       id="Arrow2Lend"
       style="overflow:visible;"
       inkscape:isstock="true">
      <path
         id="path5778"
         style="fill-rule:evenodd;stroke-width:0.625;stroke-linejoin:round;stroke:#000000;stroke-opacity:1;fill:#000000;fill-opacity:1"
         d="M 8.7185878,4.0337352 L -2.2072895,0.016013256 L 8.7185884,-4.0017078 C 6.9730900,-1.6296469 6.9831476,1.6157441 8.7185878,4.0337352 z "
         transform="scale(1.1) rotate(180) translate(1,0)" />
    </marker>
    <marker
       inkscape:stockid="Arrow1Lend"
       orient="auto"
       refY="0.0"
       refX="0.0"
       id="marker6021"
       style="overflow:visible;"
       inkscape:isstock="true">
      <path
         id="path6023"
         d="M 0.0,0.0 L 5.0,-5.0 L -12.5,0.0 L 5.0,5.0 L 0.0,0.0 z "
         style="fill-rule:evenodd;stroke:#000000;stroke-width:1pt;stroke-opacity:1;fill:#000000;fill-opacity:1"
         transform="scale(0.8) rotate(180) translate(12.5,0)" />
    </marker>
    <marker
       inkscape:stockid="Arrow1Lend"
       orient="auto"
       refY="0.0"
       refX="0.0"
       id="marker6013"
       style="overflow:visible;"
       inkscape:isstock="true">
      <path
         id="path6015"
         d="M 0.0,0.0 L 5.0,-5.0 L -12.5,0.0 L 5.0,5.0 L 0.0,0.0 z "
         style="fill-rule:evenodd;stroke:#000000;stroke-width:1pt;stroke-opacity:1;fill:#000000;fill-opacity:1"
         transform="scale(0.8) rotate(180) translate(12.5,0)" />
    </marker>
    <inkscape:path-effect
       is_visible="true"
       id="path-effect4329"
       effect="spiro" />
    <inkscape:path-effect
       is_visible="true"
       id="path-effect4325"
       effect="spiro" />
    <inkscape:path-effect
       effect="spiro"
       id="path-effect4321"
       is_visible="true" />
    <inkscape:path-effect
       effect="spiro"
       id="path-effect4317"
       is_visible="true" />
    <inkscape:path-effect
       is_visible="true"
       id="path-effect4313"
       effect="spiro" />
    <inkscape:path-effect
       effect="spiro"
       id="path-effect4309"
       is_visible="true" />
    <inkscape:path-effect
       is_visible="true"
       id="path-effect4023"
       effect="spiro" />
    <inkscape:path-effect
       effect="spiro"
       id="path-effect4907"
       is_visible="true" />
    <inkscape:path-effect
       is_visible="true"
       id="path-effect4895"
       effect="spiro" />
    <marker
       inkscape:stockid="Arrow1Mstart"
       orient="auto"
       refY="0"
       refX="0"
       id="Arrow1Mstart"
       style="overflow:visible">
      <path
         id="path4264"
         d="M 0,0 5,-5 -12.5,0 5,5 0,0 Z"
         style="fill-rule:evenodd;stroke:#000000;stroke-width:1pt;marker-start:none"
         transform="matrix(0.4,0,0,0.4,4,0)"
         inkscape:connector-curvature="0" />
    </marker>
    <marker
       inkscape:stockid="Arrow1Mend"
       orient="auto"
       refY="0"
       refX="0"
       id="Arrow1Mend"
       style="overflow:visible">
      <path
         id="path4267"
         d="M 0,0 5,-5 -12.5,0 5,5 0,0 Z"
         style="fill-rule:evenodd;stroke:#000000;stroke-width:1pt;marker-start:none"
         transform="matrix(-0.4,0,0,-0.4,-4,0)"
         inkscape:connector-curvature="0" />
    </marker>
    <inkscape:path-effect
       effect="spiro"
       id="path-effect4253"
       is_visible="true" />
    <inkscape:path-effect
       is_visible="true"
       id="path-effect4249"
       effect="spiro" />
    <inkscape:path-effect
       is_visible="true"
       id="path-effect6290"
       effect="spiro" />
    <inkscape:path-effect
       effect="spiro"
       id="path-effect6286"
       is_visible="true" />
    <inkscape:path-effect
       is_visible="true"
       id="path-effect6282"
       effect="spiro" />
    <inkscape:path-effect
       effect="spiro"
       id="path-effect6278"
       is_visible="true" />
    <inkscape:path-effect
       is_visible="true"
       id="path-effect6274"
       effect="spiro" />
    <inkscape:path-effect
       effect="spiro"
       id="path-effect6266"
       is_visible="true" />
    <inkscape:path-effect
       effect="spiro"
       id="path-effect6262"
       is_visible="true" />
    <inkscape:path-effect
       effect="spiro"
       id="path-effect6258"
       is_visible="true" />
    <inkscape:path-effect
       is_visible="true"
       id="path-effect6254"
       effect="spiro" />
    <inkscape:path-effect
       is_visible="true"
       id="path-effect6250"
       effect="spiro" />
    <inkscape:path-effect
       effect="spiro"
       id="path-effect6062"
       is_visible="true" />
    <inkscape:path-effect
       is_visible="true"
       id="path-effect6058"
       effect="spiro" />
    <inkscape:path-effect
       effect="spiro"
       id="path-effect5870"
       is_visible="true" />
    <inkscape:path-effect
       is_visible="true"
       id="path-effect5866"
       effect="spiro" />
    <inkscape:path-effect
       is_visible="true"
       id="path-effect5854"
       effect="spiro" />
    <inkscape:path-effect
       effect="spiro"
       id="path-effect5850"
       is_visible="true" />
    <inkscape:path-effect
       is_visible="true"
       id="path-effect5846"
       effect="spiro" />
    <inkscape:path-effect
       is_visible="true"
       id="path-effect5844"
       effect="spiro" />
    <inkscape:path-effect
       effect="spiro"
       id="path-effect5838"
       is_visible="true" />
    <inkscape:path-effect
       effect="spiro"
       id="path-effect5812"
       is_visible="true" />
    <inkscape:path-effect
       effect="spiro"
       id="path-effect5808"
       is_visible="true" />
    <inkscape:path-effect
       effect="spiro"
       id="path-effect5804"
       is_visible="true" />
    <inkscape:path-effect
       effect="spiro"
       id="path-effect5800"
       is_visible="true" />
    <inkscape:path-effect
       effect="spiro"
       id="path-effect5796"
       is_visible="true" />
    <inkscape:path-effect
       effect="spiro"
       id="path-effect5792"
       is_visible="true" />
    <inkscape:path-effect
       is_visible="true"
       id="path-effect5766"
       effect="spiro" />
    <inkscape:path-effect
       is_visible="true"
       id="path-effect5762"
       effect="spiro" />
    <inkscape:path-effect
       effect="spiro"
       id="path-effect5390"
       is_visible="true" />
    <inkscape:path-effect
       effect="spiro"
       id="path-effect4830"
       is_visible="true" />
    <inkscape:path-effect
       effect="spiro"
       id="path-effect4826"
       is_visible="true" />
    <inkscape:path-effect
       is_visible="true"
       id="path-effect4787"
       effect="spiro" />
    <inkscape:path-effect
       is_visible="true"
       id="path-effect4785"
       effect="spiro" />
    <inkscape:path-effect
       is_visible="true"
       id="path-effect4783"
       effect="spiro" />
    <inkscape:path-effect
       effect="spiro"
       id="path-effect4775"
       is_visible="true" />
    <marker
       inkscape:stockid="Arrow1Lend"
       orient="auto"
       refY="0"
       refX="0"
       id="Arrow1Lend"
       style="overflow:visible">
      <path
         id="path4103"
         d="M 0,0 5,-5 -12.5,0 5,5 0,0 Z"
         style="fill-rule:evenodd;stroke:#000000;stroke-width:1pt;marker-start:none"
         transform="matrix(-0.8,0,0,-0.8,-10,0)"
         inkscape:connector-curvature="0" />
    </marker>
    <marker
       inkscape:stockid="Arrow1Lstart"
       orient="auto"
       refY="0"
       refX="0"
       id="Arrow1Lstart"
       style="overflow:visible">
      <path
         id="path4100"
         d="M 0,0 5,-5 -12.5,0 5,5 0,0 Z"
         style="fill-rule:evenodd;stroke:#000000;stroke-width:1pt;marker-start:none"
         transform="matrix(0.8,0,0,0.8,10,0)"
         inkscape:connector-curvature="0" />
    </marker>
    <inkscape:path-effect
       effect="spiro"
       id="path-effect3327"
       is_visible="true" />
  </defs>
  <sodipodi:namedview
     inkscape:document-units="in"
     pagecolor="#ffffff"
     bordercolor="#666666"
     borderopacity="1.0"
     inkscape:pageopacity="0.0"
     inkscape:pageshadow="2"
     inkscape:zoom="1.2279853"
     inkscape:cx="767.73342"
     inkscape:cy="184.16092"
     inkscape:current-layer="layer2"
     id="namedview3301"
     showgrid="false"
     inkscape:window-width="2560"
     inkscape:window-height="1391"
     inkscape:window-x="0"
     inkscape:window-y="0"
     inkscape:window-maximized="1"
     units="in"
     fit-margin-top="50"
     fit-margin-left="50"
     fit-margin-right="50"
     fit-margin-bottom="15"
     showborder="false">
    <inkscape:grid
       type="xygrid"
       id="grid4245"
       originx="55.33945"
       originy="15.65821" />
  </sodipodi:namedview>
  <metadata
     id="metadata3303">
    <rdf:RDF>
      <cc:Work
         rdf:about="">
        <dc:format>image/svg+xml</dc:format>
        <dc:type
           rdf:resource="http://purl.org/dc/dcmitype/StillImage" />
        <dc:title></dc:title>
      </cc:Work>
    </rdf:RDF>
  </metadata>
  <g
     inkscape:groupmode="layer"
     id="layer2"
     inkscape:label="JET ENGINE"
     transform="translate(55.33945,-227.97058)">
    <text
       xml:space="preserve"
       style="font-style:normal;font-weight:normal;font-size:40px;line-height:125%;font-family:Sans;letter-spacing:0px;word-spacing:0px;fill:#000000;fill-opacity:1;stroke:none"
       x="789.91174"
       y="271.50873"
       id="text5768"
       sodipodi:linespacing="125%"><tspan
         sodipodi:role="line"
         id="tspan5770"
         x="789.91174"
         y="271.50873" /></text>
    <text
       xml:space="preserve"
       style="font-style:normal;font-weight:normal;font-size:40px;line-height:125%;font-family:Sans;letter-spacing:0px;word-spacing:0px;fill:#000000;fill-opacity:1;stroke:none"
       x="672.56567"
       y="421.23141"
       id="text5822"
       sodipodi:linespacing="125%"><tspan
         sodipodi:role="line"
         id="tspan5824"
         x="672.56567"
         y="421.23141" /></text>
    <text
       xml:space="preserve"
       style="font-style:normal;font-weight:normal;font-size:40px;line-height:125%;font-family:Sans;letter-spacing:0px;word-spacing:0px;fill:#000000;fill-opacity:1;stroke:none"
       x="206.84286"
       y="186.81717"
       id="text5832"
       sodipodi:linespacing="125%"><tspan
         sodipodi:role="line"
         id="tspan5834"
         x="206.84286"
         y="186.81717" /></text>
    <text
       xml:space="preserve"
       style="font-style:normal;font-variant:normal;font-weight:normal;font-stretch:normal;font-size:20px;line-height:93.99999976%;font-family:'Times New Roman';-inkscape-font-specification:'Times New Roman,';text-align:start;letter-spacing:0px;word-spacing:0px;writing-mode:lr-tb;text-anchor:start;fill:#000000;fill-opacity:1;stroke:none"
       x="138.19843"
       y="313.61456"
       id="text3117"
       sodipodi:linespacing="94%"
       transform="translate(0,270)"><tspan
         sodipodi:role="line"
         id="tspan3119"
         x="138.19843"
         y="313.61456" /></text>
    <text
       xml:space="preserve"
       style="font-style:normal;font-variant:normal;font-weight:normal;font-stretch:normal;font-size:20px;line-height:93.99999976%;font-family:'Times New Roman';-inkscape-font-specification:'Times New Roman,';text-align:start;letter-spacing:0px;word-spacing:0px;writing-mode:lr-tb;text-anchor:start;fill:#000000;fill-opacity:1;stroke:none"
       x="97.890549"
       y="231.84717"
       id="text3121"
       sodipodi:linespacing="94%"
       transform="translate(0,270)"><tspan
         sodipodi:role="line"
         id="tspan3123"
         x="97.890549"
         y="231.84717" /></text>
    <text
       sodipodi:linespacing="125%"
       id="text4743"
       y="1019.6434"
       x="1050.9559"
       style="font-style:italic;font-variant:normal;font-weight:normal;font-stretch:normal;font-size:30px;line-height:125%;font-family:'Times New Roman';-inkscape-font-specification:'Times New Roman, Italic';text-align:start;letter-spacing:0px;word-spacing:0px;writing-mode:lr-tb;text-anchor:start;fill:#000000;fill-opacity:1;stroke:none"
       xml:space="preserve"><tspan
         style="font-size:40px"
         y="1019.6434"
         x="1050.9559"
         id="tspan4745"
         sodipodi:role="line">U<tspan
   id="tspan4747"
   style="font-size:64.99999762%;baseline-shift:sub">e</tspan></tspan></text>
    <text
       xml:space="preserve"
       style="font-style:italic;font-variant:normal;font-weight:normal;font-stretch:normal;font-size:30px;line-height:125%;font-family:'Times New Roman';-inkscape-font-specification:'Times New Roman, Italic';text-align:start;letter-spacing:0px;word-spacing:0px;writing-mode:lr-tb;text-anchor:start;fill:#000000;fill-opacity:1;stroke:none"
       x="333.47577"
       y="1015.9481"
       id="text5729"
       sodipodi:linespacing="125%"><tspan
         sodipodi:role="line"
         id="tspan5731"
         x="333.47577"
         y="1015.9481"
         style="font-size:40px">1</tspan></text>
    <text
       sodipodi:linespacing="125%"
       id="text5735"
       y="1015.9481"
       x="410.63657"
       style="font-style:italic;font-variant:normal;font-weight:normal;font-stretch:normal;font-size:30px;line-height:125%;font-family:'Times New Roman';-inkscape-font-specification:'Times New Roman, Italic';text-align:start;letter-spacing:0px;word-spacing:0px;writing-mode:lr-tb;text-anchor:start;fill:#000000;fill-opacity:1;stroke:none"
       xml:space="preserve"><tspan
         style="font-size:40px"
         y="1015.9481"
         x="410.63657"
         id="tspan5737"
         sodipodi:role="line">2</tspan></text>
    <text
       xml:space="preserve"
       style="font-style:italic;font-variant:normal;font-weight:normal;font-stretch:normal;font-size:30px;line-height:125%;font-family:'Times New Roman';-inkscape-font-specification:'Times New Roman, Italic';text-align:start;letter-spacing:0px;word-spacing:0px;writing-mode:lr-tb;text-anchor:start;fill:#000000;fill-opacity:1;stroke:none"
       x="571.16943"
       y="1031.4478"
       id="text5739"
       sodipodi:linespacing="125%"><tspan
         sodipodi:role="line"
         id="tspan5741"
         x="571.16943"
         y="1031.4478"
         style="font-size:40px">3</tspan></text>
    <text
       sodipodi:linespacing="125%"
       id="text5743"
       y="1023.979"
       x="808.82922"
       style="font-style:italic;font-variant:normal;font-weight:normal;font-stretch:normal;font-size:30px;line-height:125%;font-family:'Times New Roman';-inkscape-font-specification:'Times New Roman, Italic';text-align:start;letter-spacing:0px;word-spacing:0px;writing-mode:lr-tb;text-anchor:start;fill:#000000;fill-opacity:1;stroke:none"
       xml:space="preserve"><tspan
         style="font-size:40px"
         y="1023.979"
         x="808.82922"
         id="tspan5745"
         sodipodi:role="line">4</tspan></text>
    <text
       xml:space="preserve"
       style="font-style:italic;font-variant:normal;font-weight:normal;font-stretch:normal;font-size:30px;line-height:125%;font-family:'Times New Roman';-inkscape-font-specification:'Times New Roman, Italic';text-align:start;letter-spacing:0px;word-spacing:0px;writing-mode:lr-tb;text-anchor:start;fill:#000000;fill-opacity:1;stroke:none"
       x="912.75745"
       y="1015.4793"
       id="text5747"
       sodipodi:linespacing="125%"><tspan
         sodipodi:role="line"
         id="tspan5749"
         x="912.75745"
         y="1015.4793"
         style="font-size:40px">5</tspan></text>
    <path
       style="fill:#000000;fill-rule:evenodd;stroke:#000000;stroke-width:2;stroke-linecap:butt;stroke-linejoin:miter;stroke-miterlimit:4;stroke-dasharray:none;stroke-opacity:1;marker-end:url(#Arrow1Mend)"
       d="m 712.81434,458.04222 0,39.16327"
       id="path6019"
       inkscape:connector-curvature="0" />
    <text
       xml:space="preserve"
       style="font-style:italic;font-variant:normal;font-weight:normal;font-stretch:normal;font-size:30px;line-height:125%;font-family:'Times New Roman';-inkscape-font-specification:'Times New Roman, Italic';text-align:start;letter-spacing:0px;word-spacing:0px;writing-mode:lr-tb;text-anchor:start;fill:#000000;fill-opacity:1;stroke:none"
       x="721.75677"
       y="469.23047"
       id="text6031"
       sodipodi:linespacing="125%"><tspan
         sodipodi:role="line"
         id="tspan6033"
         x="721.75677"
         y="469.23047"
         style="font-style:normal;font-variant:normal;font-weight:normal;font-stretch:normal;font-size:30px;font-family:'Times New Roman';-inkscape-font-specification:'Times New Roman, '">Fuel</tspan></text>
    <text
       sodipodi:linespacing="125%"
       id="text4814"
       y="552.22162"
       x="662.59662"
       style="font-style:italic;font-variant:normal;font-weight:normal;font-stretch:normal;font-size:30px;line-height:125%;font-family:'Times New Roman';-inkscape-font-specification:'Times New Roman, Italic';text-align:start;letter-spacing:0px;word-spacing:0px;writing-mode:lr-tb;text-anchor:start;fill:#000000;fill-opacity:1;stroke:none"
       xml:space="preserve"><tspan
         style="font-style:normal;font-variant:normal;font-weight:normal;font-stretch:normal;font-size:40px;font-family:'Times New Roman';-inkscape-font-specification:'Times New Roman, '"
         y="552.22162"
         x="662.59662"
         id="tspan4816"
         sodipodi:role="line">Comb</tspan></text>
    <text
       xml:space="preserve"
       style="font-style:italic;font-variant:normal;font-weight:normal;font-stretch:normal;font-size:30px;line-height:125%;font-family:'Times New Roman';-inkscape-font-specification:'Times New Roman, Italic';text-align:start;letter-spacing:0px;word-spacing:0px;writing-mode:lr-tb;text-anchor:start;fill:#000000;fill-opacity:1;stroke:none"
       x="533.7027"
       y="672.99762"
       id="text4818"
       sodipodi:linespacing="125%"><tspan
         sodipodi:role="line"
         id="tspan4820"
         x="533.7027"
         y="672.99762"
         style="font-style:normal;font-variant:normal;font-weight:normal;font-stretch:normal;font-size:40px;font-family:'Times New Roman';-inkscape-font-specification:'Times New Roman, '">C</tspan></text>
    <text
       xml:space="preserve"
       style="font-style:italic;font-variant:normal;font-weight:normal;font-stretch:normal;font-size:30px;line-height:125%;font-family:'Times New Roman';-inkscape-font-specification:'Times New Roman, Italic';text-align:start;letter-spacing:0px;word-spacing:0px;writing-mode:lr-tb;text-anchor:start;fill:#000000;fill-opacity:1;stroke:none"
       x="859.96698"
       y="673.60309"
       id="text4826"
       sodipodi:linespacing="125%"><tspan
         sodipodi:role="line"
         id="tspan4828"
         x="859.96698"
         y="673.60309"
         style="font-style:normal;font-variant:normal;font-weight:normal;font-stretch:normal;font-size:40px;font-family:'Times New Roman';-inkscape-font-specification:'Times New Roman, '">T</tspan></text>
    <path
       style="fill:none;fill-rule:evenodd;stroke:#000000;stroke-width:2.25276089;stroke-linecap:butt;stroke-linejoin:miter;stroke-miterlimit:4;stroke-dasharray:none;stroke-opacity:1"
       d="m 373.12671,760.99999 126.87329,0"
       id="path4830"
       inkscape:connector-curvature="0" />
    <path
       inkscape:connector-curvature="0"
       id="path4832"
       d="m 918.89203,760.99999 181.59397,0"
       style="fill:none;fill-rule:evenodd;stroke:#000000;stroke-width:2;stroke-linecap:butt;stroke-linejoin:miter;stroke-miterlimit:4;stroke-dasharray:none;stroke-opacity:1;marker-end:url(#Arrow2Mend)" />
    <text
       sodipodi:linespacing="125%"
       id="text4930"
       y="699.80548"
       x="677.46991"
       style="font-style:italic;font-variant:normal;font-weight:normal;font-stretch:normal;font-size:30px;line-height:125%;font-family:'Times New Roman';-inkscape-font-specification:'Times New Roman, Italic';text-align:start;letter-spacing:0px;word-spacing:0px;writing-mode:lr-tb;text-anchor:start;fill:#000000;fill-opacity:1;stroke:none"
       xml:space="preserve"><tspan
         style="font-style:normal;font-variant:normal;font-weight:normal;font-stretch:normal;font-size:30px;font-family:'Times New Roman';-inkscape-font-specification:'Times New Roman, '"
         y="699.80548"
         x="677.46991"
         id="tspan4932"
         sodipodi:role="line">Shaft</tspan></text>
  </g>
  <g
     inkscape:label="Layer 1"
     inkscape:groupmode="layer"
     id="layer1"
     transform="translate(55.33945,-227.97058)">
    <path
       style="opacity:0;fill:#000000;fill-opacity:1;stroke:#00cc00;stroke-width:6.90992117;stroke-miterlimit:4;stroke-dasharray:none;stroke-dashoffset:0;stroke-opacity:1"
       d="m 932.53137,635.7788 c -36.63808,-2.50317 -73.71167,-11.58112 -108.7252,-26.62278 l -19.10834,-8.20886 0,-43.16897 0,-43.16897 18.24259,-8.33891 c 40.11901,-18.33889 84.78368,-27.53079 133.77567,-27.53079 50.75021,0 91.05971,8.67003 134.16761,28.85767 l 20.154,9.43819 0,40.82679 0,40.8268 -21.3056,9.25963 c -52.499,22.81659 -102.0878,31.5956 -157.20073,27.8302 z"
       id="path4789"
       inkscape:connector-curvature="0" />
    <path
       style="opacity:0;fill:#999999;fill-opacity:1;stroke:#00cc00;stroke-width:6.90992117;stroke-miterlimit:4;stroke-dasharray:none;stroke-dashoffset:0;stroke-opacity:1"
       d="m 932.53137,635.7788 c -36.63808,-2.50317 -73.71167,-11.58112 -108.7252,-26.62278 l -19.10834,-8.20886 0,-43.16897 0,-43.16897 18.24259,-8.33891 c 40.11901,-18.33889 84.78368,-27.53079 133.77567,-27.53079 50.75021,0 91.05971,8.67003 134.16761,28.85767 l 20.154,9.43819 0,40.82679 0,40.8268 -21.3056,9.25963 c -52.499,22.81659 -102.0878,31.5956 -157.20073,27.8302 z"
       id="path4791"
       inkscape:connector-curvature="0" />
    <path
       style="opacity:0;fill:#999999;fill-opacity:1;stroke:#00cc00;stroke-width:6.90992117;stroke-miterlimit:4;stroke-dasharray:none;stroke-dashoffset:0;stroke-opacity:1"
       d="m 932.53137,635.7788 c -36.63808,-2.50317 -73.71167,-11.58112 -108.7252,-26.62278 l -19.10834,-8.20886 0,-43.16897 0,-43.16897 18.24259,-8.33891 c 40.11901,-18.33889 84.78368,-27.53079 133.77567,-27.53079 50.75021,0 91.05971,8.67003 134.16761,28.85767 l 20.154,9.43819 0,40.82679 0,40.8268 -21.3056,9.25963 c -52.499,22.81659 -102.0878,31.5956 -157.20073,27.8302 z"
       id="path4793"
       inkscape:connector-curvature="0" />
    <path
       style="opacity:0;fill:#999999;fill-opacity:1;stroke:#00cc00;stroke-width:6.90992117;stroke-miterlimit:4;stroke-dasharray:none;stroke-dashoffset:0;stroke-opacity:1"
       d="m 932.53137,635.7788 c -36.63808,-2.50317 -73.71167,-11.58112 -108.7252,-26.62278 l -19.10834,-8.20886 0,-43.16897 0,-43.16897 18.24259,-8.33891 c 40.11901,-18.33889 84.78368,-27.53079 133.77567,-27.53079 50.75021,0 91.05971,8.67003 134.16761,28.85767 l 20.154,9.43819 0,40.82679 0,40.8268 -21.3056,9.25963 c -52.499,22.81659 -102.0878,31.5956 -157.20073,27.8302 z"
       id="path4795"
       inkscape:connector-curvature="0" />
    <path
       style="opacity:0;fill:#999999;fill-opacity:1;stroke:#00cc00;stroke-width:6.90992117;stroke-miterlimit:4;stroke-dasharray:none;stroke-dashoffset:0;stroke-opacity:1"
       d="m 932.53137,635.7788 c -36.63808,-2.50317 -73.71167,-11.58112 -108.7252,-26.62278 l -19.10834,-8.20886 0,-43.16897 0,-43.16897 18.24259,-8.33891 c 40.11901,-18.33889 84.78368,-27.53079 133.77567,-27.53079 50.75021,0 91.05971,8.67003 134.16761,28.85767 l 20.154,9.43819 0,40.82679 0,40.8268 -21.3056,9.25963 c -52.499,22.81659 -102.0878,31.5956 -157.20073,27.8302 z"
       id="path4797"
       inkscape:connector-curvature="0" />
    <path
       style="opacity:0;fill:#999999;fill-opacity:1;stroke:#00cc00;stroke-width:6.90992117;stroke-miterlimit:4;stroke-dasharray:none;stroke-dashoffset:0;stroke-opacity:1"
       d="m 932.53137,635.7788 c -36.63808,-2.50317 -73.71167,-11.58112 -108.7252,-26.62278 l -19.10834,-8.20886 0,-43.16897 0,-43.16897 18.24259,-8.33891 c 40.11901,-18.33889 84.78368,-27.53079 133.77567,-27.53079 50.75021,0 91.05971,8.67003 134.16761,28.85767 l 20.154,9.43819 0,40.82679 0,40.8268 -21.3056,9.25963 c -52.499,22.81659 -102.0878,31.5956 -157.20073,27.8302 z"
       id="path4799"
       inkscape:connector-curvature="0" />
    <path
       style="opacity:0;fill:#b3b3b3;fill-opacity:1;stroke:#00cc00;stroke-width:6.90992117;stroke-miterlimit:4;stroke-dasharray:none;stroke-dashoffset:0;stroke-opacity:1"
       d="m 932.53137,635.7788 c -36.63808,-2.50317 -73.71167,-11.58112 -108.7252,-26.62278 l -19.10834,-8.20886 -3.45496,-43.16897 3.45496,-43.16897 18.24259,-8.33891 c 40.11901,-18.33889 84.78368,-27.53079 133.77567,-27.53079 50.75021,0 91.05971,8.67003 134.16761,28.85767 l 20.154,9.43819 2.3033,41.40262 -2.3033,40.25097 -21.3056,9.25963 c -52.499,22.81659 -102.0878,31.5956 -157.20073,27.8302 z"
       id="path4801"
       inkscape:connector-curvature="0"
       sodipodi:nodetypes="sscccssscccss" />
    <path
       style="opacity:0;fill:#b3b3b3;fill-opacity:1;stroke:#00cc00;stroke-width:2.44302607;stroke-miterlimit:4;stroke-dasharray:none;stroke-dashoffset:0;stroke-opacity:1"
       d="m 933.20168,637.24068 c -1.56761,-0.17639 -6.88119,-0.72168 -11.80796,-1.21175 -36.30449,-3.61128 -77.89788,-15.44496 -108.91824,-30.9882 l -9.56852,-4.79446 0,-43.03181 0,-43.03181 9.673,-4.57611 c 64.52343,-30.52481 134.54845,-39.77559 204.27424,-26.98602 29.1951,5.35514 62.7968,16.87877 88.3772,30.30873 l 7.1255,3.74095 0,40.77638 0,40.77639 -7.5289,3.82859 c -35.3828,17.99272 -69.1396,28.34105 -109.92462,33.698 -9.42818,1.23835 -54.3019,2.32293 -61.69425,1.49112 l 6.9e-4,0 z"
       id="path4803"
       inkscape:connector-curvature="0" />
    <path
       style="opacity:0;fill:#b3b3b3;fill-opacity:1;stroke:#00cc00;stroke-width:2.44302607;stroke-miterlimit:4;stroke-dasharray:none;stroke-dashoffset:0;stroke-opacity:1"
       d="m 933.20168,637.24068 c -1.56761,-0.17639 -6.88119,-0.72168 -11.80796,-1.21175 -36.30449,-3.61128 -77.89788,-15.44496 -108.91824,-30.9882 l -9.56852,-4.79446 0,-43.03181 0,-43.03181 9.673,-4.57611 c 64.52343,-30.52481 134.54845,-39.77559 204.27424,-26.98602 29.1951,5.35514 62.7968,16.87877 88.3772,30.30873 l 7.1255,3.74095 0,40.77638 0,40.77639 -7.5289,3.82859 c -35.3828,17.99272 -69.1396,28.34105 -109.92462,33.698 -9.42818,1.23835 -54.3019,2.32293 -61.69425,1.49112 l 6.9e-4,0 z"
       id="path4805"
       inkscape:connector-curvature="0" />
    <path
       style="opacity:0;fill:#b3b3b3;fill-opacity:1;stroke:#00cc00;stroke-width:2.44302607;stroke-miterlimit:4;stroke-dasharray:none;stroke-dashoffset:0;stroke-opacity:1"
       d="m 933.20168,637.24068 c -1.56761,-0.17639 -6.88119,-0.72168 -11.80796,-1.21175 -36.30449,-3.61128 -77.89788,-15.44496 -108.91824,-30.9882 l -9.56852,-4.79446 0,-43.03181 0,-43.03181 9.673,-4.57611 c 64.52343,-30.52481 134.54845,-39.77559 204.27424,-26.98602 29.1951,5.35514 62.7968,16.87877 88.3772,30.30873 l 7.1255,3.74095 0,40.77638 0,40.77639 -7.5289,3.82859 c -35.3828,17.99272 -69.1396,28.34105 -109.92462,33.698 -9.42818,1.23835 -54.3019,2.32293 -61.69425,1.49112 l 6.9e-4,0 z"
       id="path4807"
       inkscape:connector-curvature="0" />
    <path
       style="opacity:0;fill:#b3b3b3;fill-opacity:1;stroke:#00cc00;stroke-width:2.44302607;stroke-miterlimit:4;stroke-dasharray:none;stroke-dashoffset:0;stroke-opacity:1"
       d="m 933.20168,637.24068 c -1.56761,-0.17639 -6.88119,-0.72168 -11.80796,-1.21175 -36.30449,-3.61128 -77.89788,-15.44496 -108.91824,-30.9882 l -9.56852,-4.79446 0,-43.03181 0,-43.03181 9.673,-4.57611 c 64.52343,-30.52481 134.54845,-39.77559 204.27424,-26.98602 29.1951,5.35514 62.7968,16.87877 88.3772,30.30873 l 7.1255,3.74095 0,40.77638 0,40.77639 -7.5289,3.82859 c -35.3828,17.99272 -69.1396,28.34105 -109.92462,33.698 -9.42818,1.23835 -54.3019,2.32293 -61.69425,1.49112 l 6.9e-4,0 z"
       id="path4811"
       inkscape:connector-curvature="0" />
    <path
       style="opacity:0;fill:#b3b3b3;fill-opacity:1;stroke:#00cc00;stroke-width:2.44302607;stroke-miterlimit:4;stroke-dasharray:none;stroke-dashoffset:0;stroke-opacity:1"
       d="m 933.20168,637.24068 c -1.56761,-0.17639 -6.88119,-0.72168 -11.80796,-1.21175 -36.30449,-3.61128 -77.89788,-15.44496 -108.91824,-30.9882 l -9.56852,-4.79446 0,-43.03181 0,-43.03181 9.673,-4.57611 c 64.52343,-30.52481 134.54845,-39.77559 204.27424,-26.98602 29.1951,5.35514 62.7968,16.87877 88.3772,30.30873 l 7.1255,3.74095 0,40.77638 0,40.77639 -7.5289,3.82859 c -35.3828,17.99272 -69.1396,28.34105 -109.92462,33.698 -9.42818,1.23835 -54.3019,2.32293 -61.69425,1.49112 l 6.9e-4,0 z"
       id="path4813"
       inkscape:connector-curvature="0" />
    <path
       style="opacity:0;fill:#b3b3b3;fill-opacity:1;stroke:#00cc00;stroke-width:2.44302607;stroke-miterlimit:4;stroke-dasharray:none;stroke-dashoffset:0;stroke-opacity:1"
       d="m 933.20168,637.24068 c -1.56761,-0.17639 -6.88119,-0.72168 -11.80796,-1.21175 -36.30449,-3.61128 -77.89788,-15.44496 -108.91824,-30.9882 l -9.56852,-4.79446 0,-43.03181 0,-43.03181 9.673,-4.57611 c 64.52343,-30.52481 134.54845,-39.77559 204.27424,-26.98602 29.1951,5.35514 62.7968,16.87877 88.3772,30.30873 l 7.1255,3.74095 0,40.77638 0,40.77639 -7.5289,3.82859 c -35.3828,17.99272 -69.1396,28.34105 -109.92462,33.698 -9.42818,1.23835 -54.3019,2.32293 -61.69425,1.49112 l 6.9e-4,0 z"
       id="path4815"
       inkscape:connector-curvature="0" />
    <path
       style="opacity:0;fill:#b3b3b3;fill-opacity:1;stroke:#00cc00;stroke-width:2.44302607;stroke-miterlimit:4;stroke-dasharray:none;stroke-dashoffset:0;stroke-opacity:1"
       d="m 933.20168,637.24068 c -1.56761,-0.17639 -6.88119,-0.72168 -11.80796,-1.21175 -36.30449,-3.61128 -77.89788,-15.44496 -108.91824,-30.9882 l -9.56852,-4.79446 0,-43.03181 0,-43.03181 9.673,-4.57611 c 64.52343,-30.52481 134.54845,-39.77559 204.27424,-26.98602 29.1951,5.35514 62.7968,16.87877 88.3772,30.30873 l 7.1255,3.74095 0,40.77638 0,40.77639 -7.5289,3.82859 c -35.3828,17.99272 -69.1396,28.34105 -109.92462,33.698 -9.42818,1.23835 -54.3019,2.32293 -61.69425,1.49112 l 6.9e-4,0 z"
       id="path4817"
       inkscape:connector-curvature="0" />
    <path
       style="opacity:0;fill:#b3b3b3;fill-opacity:1;stroke:#00cc00;stroke-width:2.44302607;stroke-miterlimit:4;stroke-dasharray:none;stroke-dashoffset:0;stroke-opacity:1"
       d="m 933.20168,637.24068 c -1.56761,-0.17639 -6.88119,-0.72168 -11.80796,-1.21175 -36.30449,-3.61128 -77.89788,-15.44496 -108.91824,-30.9882 l -9.56852,-4.79446 0,-43.03181 0,-43.03181 9.673,-4.57611 c 64.52343,-30.52481 134.54845,-39.77559 204.27424,-26.98602 29.1951,5.35514 62.7968,16.87877 88.3772,30.30873 l 7.1255,3.74095 0,40.77638 0,40.77639 -7.5289,3.82859 c -35.3828,17.99272 -69.1396,28.34105 -109.92462,33.698 -9.42818,1.23835 -54.3019,2.32293 -61.69425,1.49112 l 6.9e-4,0 z"
       id="path4819"
       inkscape:connector-curvature="0" />
    <path
       style="opacity:0;fill:#b3b3b3;fill-opacity:1;stroke:#00cc00;stroke-width:2.44302607;stroke-miterlimit:4;stroke-dasharray:none;stroke-dashoffset:0;stroke-opacity:1"
       d="m 933.20168,637.24068 c -1.56761,-0.17639 -6.88119,-0.72168 -11.80796,-1.21175 -36.30449,-3.61128 -77.89788,-15.44496 -108.91824,-30.9882 l -9.56852,-4.79446 0,-43.03181 0,-43.03181 9.673,-4.57611 c 64.52343,-30.52481 134.54845,-39.77559 204.27424,-26.98602 29.1951,5.35514 62.7968,16.87877 88.3772,30.30873 l 7.1255,3.74095 0,40.77638 0,40.77639 -7.5289,3.82859 c -35.3828,17.99272 -69.1396,28.34105 -109.92462,33.698 -9.42818,1.23835 -54.3019,2.32293 -61.69425,1.49112 l 6.9e-4,0 z"
       id="path4821"
       inkscape:connector-curvature="0" />
    <path
       style="fill:none;fill-rule:evenodd;stroke:#000000;stroke-width:5.11643267;stroke-linecap:butt;stroke-linejoin:miter;stroke-miterlimit:4;stroke-dasharray:none;stroke-opacity:1"
       d="m 587.69746,652.44357 242.95671,0"
       id="path4763"
       inkscape:connector-curvature="0" />
    <path
       style="fill:none;fill-rule:evenodd;stroke:#000000;stroke-width:3;stroke-linecap:butt;stroke-linejoin:miter;stroke-miterlimit:4;stroke-dasharray:none;stroke-opacity:1"
       d="m 647.79395,505.61186 0,64.64827 129.29654,0 0,-64.64827 z"
       id="path4765"
       inkscape:connector-curvature="0" />
    <g
       id="g4359"
       style="stroke-width:3;stroke-miterlimit:4;stroke-dasharray:none"
       transform="translate(-14,0)">
      <path
         sodipodi:nodetypes="cccc"
         inkscape:connector-curvature="0"
         id="path4757"
         d="m 516.18752,691.06334 -0.87742,-130.56029 87.07512,36.95683 0,93.60346"
         style="fill:none;fill-rule:evenodd;stroke:#000000;stroke-width:3;stroke-linecap:butt;stroke-linejoin:miter;stroke-miterlimit:4;stroke-dasharray:none;stroke-opacity:1" />
      <path
         style="fill:none;fill-rule:evenodd;stroke:#000000;stroke-width:3;stroke-linecap:butt;stroke-linejoin:miter;stroke-miterlimit:4;stroke-dasharray:none;stroke-opacity:1"
         d="m 516.18752,690.46813 -0.87742,69.23474 87.07512,-36.95683 0,-31.99"
         id="path4355"
         inkscape:connector-curvature="0"
         sodipodi:nodetypes="cccc" />
    </g>
    <path
       inkscape:connector-curvature="0"
       id="path4357"
       d="m 587.69746,667.91607 242.95671,0"
       style="fill:none;fill-rule:evenodd;stroke:#000000;stroke-width:5.11643267;stroke-linecap:butt;stroke-linejoin:miter;stroke-miterlimit:4;stroke-dasharray:none;stroke-opacity:1" />
    <g
       id="g4363"
       transform="matrix(-1,0,0,1,1432.8041,0)"
       style="stroke-width:3;stroke-miterlimit:4;stroke-dasharray:none">
      <path
         style="fill:none;fill-rule:evenodd;stroke:#000000;stroke-width:3;stroke-linecap:butt;stroke-linejoin:miter;stroke-miterlimit:4;stroke-dasharray:none;stroke-opacity:1"
         d="m 516.18752,691.06334 -0.87742,-130.56029 87.07512,36.95683 0,93.60346"
         id="path4365"
         inkscape:connector-curvature="0"
         sodipodi:nodetypes="cccc" />
      <path
         sodipodi:nodetypes="cccc"
         inkscape:connector-curvature="0"
         id="path4367"
         d="m 516.18752,690.46813 -0.87742,69.23474 87.07512,-36.95683 0,-31.99"
         style="fill:none;fill-rule:evenodd;stroke:#000000;stroke-width:3;stroke-linecap:butt;stroke-linejoin:miter;stroke-miterlimit:4;stroke-dasharray:none;stroke-opacity:1" />
    </g>
  </g>
</svg>
