<?xml version="1.0" encoding="UTF-8" standalone="no"?>
<!-- Created with Inkscape (http://www.inkscape.org/) -->

<svg
   xmlns:dc="http://purl.org/dc/elements/1.1/"
   xmlns:cc="http://creativecommons.org/ns#"
   xmlns:rdf="http://www.w3.org/1999/02/22-rdf-syntax-ns#"
   xmlns:svg="http://www.w3.org/2000/svg"
   xmlns="http://www.w3.org/2000/svg"
   xmlns:sodipodi="http://sodipodi.sourceforge.net/DTD/sodipodi-0.dtd"
   xmlns:inkscape="http://www.inkscape.org/namespaces/inkscape"
   width="1003.9315"
   height="572.8031"
   id="svg3297"
   version="1.1"
   inkscape:version="0.91 r13725"
   sodipodi:docname="turbofanAnalysis.svg">
  <defs
     id="defs3299">
    <marker
       inkscape:isstock="true"
       style="overflow:visible"
       id="marker6865"
       refX="0"
       refY="0"
       orient="auto"
       inkscape:stockid="Arrow2Mend">
      <path
         inkscape:connector-curvature="0"
         transform="scale(-0.6,-0.6)"
         d="M 8.7185878,4.0337352 -2.2072895,0.01601326 8.7185884,-4.0017078 c -1.7454984,2.3720609 -1.7354408,5.6174519 -6e-7,8.035443 z"
         style="fill:#000000;fill-opacity:1;fill-rule:evenodd;stroke:#000000;stroke-width:0.625;stroke-linejoin:round;stroke-opacity:1"
         id="path6867" />
    </marker>
    <marker
       inkscape:stockid="Arrow1Mend"
       orient="auto"
       refY="0"
       refX="0"
       id="marker6045"
       style="overflow:visible"
       inkscape:isstock="true">
      <path
         id="path5766"
         d="M 0,0 5,-5 -12.5,0 5,5 0,0 Z"
         style="fill:#000000;fill-opacity:1;fill-rule:evenodd;stroke:#000000;stroke-width:1pt;stroke-opacity:1"
         transform="matrix(-0.4,0,0,-0.4,-4,0)"
         inkscape:connector-curvature="0" />
    </marker>
    <marker
       inkscape:stockid="Arrow1Send"
       orient="auto"
       refY="0"
       refX="0"
       id="Arrow1Send"
       style="overflow:visible"
       inkscape:isstock="true">
      <path
         id="path5772"
         d="M 0,0 5,-5 -12.5,0 5,5 0,0 Z"
         style="fill:#000000;fill-opacity:1;fill-rule:evenodd;stroke:#000000;stroke-width:1pt;stroke-opacity:1"
         transform="matrix(-0.2,0,0,-0.2,-1.2,0)"
         inkscape:connector-curvature="0" />
    </marker>
    <inkscape:path-effect
       effect="spiro"
       id="path-effect6039"
       is_visible="true" />
    <marker
       inkscape:stockid="Arrow2Lend"
       orient="auto"
       refY="0"
       refX="0"
       id="Arrow2Lend"
       style="overflow:visible"
       inkscape:isstock="true">
      <path
         id="path5778"
         style="fill:#000000;fill-opacity:1;fill-rule:evenodd;stroke:#000000;stroke-width:0.625;stroke-linejoin:round;stroke-opacity:1"
         d="M 8.7185878,4.0337352 -2.2072895,0.01601326 8.7185884,-4.0017078 c -1.7454984,2.3720609 -1.7354408,5.6174519 -6e-7,8.035443 z"
         transform="matrix(-1.1,0,0,-1.1,-1.1,0)"
         inkscape:connector-curvature="0" />
    </marker>
    <marker
       inkscape:stockid="Arrow1Lend"
       orient="auto"
       refY="0"
       refX="0"
       id="marker6021"
       style="overflow:visible"
       inkscape:isstock="true">
      <path
         id="path6023"
         d="M 0,0 5,-5 -12.5,0 5,5 0,0 Z"
         style="fill:#000000;fill-opacity:1;fill-rule:evenodd;stroke:#000000;stroke-width:1pt;stroke-opacity:1"
         transform="matrix(-0.8,0,0,-0.8,-10,0)"
         inkscape:connector-curvature="0" />
    </marker>
    <marker
       inkscape:stockid="Arrow1Lend"
       orient="auto"
       refY="0"
       refX="0"
       id="marker6013"
       style="overflow:visible"
       inkscape:isstock="true">
      <path
         id="path6015"
         d="M 0,0 5,-5 -12.5,0 5,5 0,0 Z"
         style="fill:#000000;fill-opacity:1;fill-rule:evenodd;stroke:#000000;stroke-width:1pt;stroke-opacity:1"
         transform="matrix(-0.8,0,0,-0.8,-10,0)"
         inkscape:connector-curvature="0" />
    </marker>
    <inkscape:path-effect
       is_visible="true"
       id="path-effect4329"
       effect="spiro" />
    <inkscape:path-effect
       is_visible="true"
       id="path-effect4325"
       effect="spiro" />
    <inkscape:path-effect
       effect="spiro"
       id="path-effect4321"
       is_visible="true" />
    <inkscape:path-effect
       effect="spiro"
       id="path-effect4317"
       is_visible="true" />
    <inkscape:path-effect
       is_visible="true"
       id="path-effect4313"
       effect="spiro" />
    <inkscape:path-effect
       effect="spiro"
       id="path-effect4309"
       is_visible="true" />
    <inkscape:path-effect
       is_visible="true"
       id="path-effect4023"
       effect="spiro" />
    <inkscape:path-effect
       effect="spiro"
       id="path-effect4907"
       is_visible="true" />
    <inkscape:path-effect
       is_visible="true"
       id="path-effect4895"
       effect="spiro" />
    <marker
       inkscape:stockid="Arrow1Mstart"
       orient="auto"
       refY="0"
       refX="0"
       id="Arrow1Mstart"
       style="overflow:visible">
      <path
         id="path4264"
         d="M 0,0 5,-5 -12.5,0 5,5 0,0 Z"
         style="fill-rule:evenodd;stroke:#000000;stroke-width:1pt;marker-start:none"
         transform="matrix(0.4,0,0,0.4,4,0)"
         inkscape:connector-curvature="0" />
    </marker>
    <marker
       inkscape:stockid="Arrow1Mend"
       orient="auto"
       refY="0"
       refX="0"
       id="Arrow1Mend"
       style="overflow:visible">
      <path
         id="path4267"
         d="M 0,0 5,-5 -12.5,0 5,5 0,0 Z"
         style="fill-rule:evenodd;stroke:#000000;stroke-width:1pt;marker-start:none"
         transform="matrix(-0.4,0,0,-0.4,-4,0)"
         inkscape:connector-curvature="0" />
    </marker>
    <inkscape:path-effect
       effect="spiro"
       id="path-effect4253"
       is_visible="true" />
    <inkscape:path-effect
       is_visible="true"
       id="path-effect4249"
       effect="spiro" />
    <inkscape:path-effect
       is_visible="true"
       id="path-effect6290"
       effect="spiro" />
    <inkscape:path-effect
       effect="spiro"
       id="path-effect6286"
       is_visible="true" />
    <inkscape:path-effect
       is_visible="true"
       id="path-effect6282"
       effect="spiro" />
    <inkscape:path-effect
       effect="spiro"
       id="path-effect6278"
       is_visible="true" />
    <inkscape:path-effect
       is_visible="true"
       id="path-effect6274"
       effect="spiro" />
    <inkscape:path-effect
       effect="spiro"
       id="path-effect6266"
       is_visible="true" />
    <inkscape:path-effect
       effect="spiro"
       id="path-effect6262"
       is_visible="true" />
    <inkscape:path-effect
       effect="spiro"
       id="path-effect6258"
       is_visible="true" />
    <inkscape:path-effect
       is_visible="true"
       id="path-effect6254"
       effect="spiro" />
    <inkscape:path-effect
       is_visible="true"
       id="path-effect6250"
       effect="spiro" />
    <inkscape:path-effect
       effect="spiro"
       id="path-effect6062"
       is_visible="true" />
    <inkscape:path-effect
       is_visible="true"
       id="path-effect6058"
       effect="spiro" />
    <inkscape:path-effect
       effect="spiro"
       id="path-effect5870"
       is_visible="true" />
    <inkscape:path-effect
       is_visible="true"
       id="path-effect5866"
       effect="spiro" />
    <inkscape:path-effect
       is_visible="true"
       id="path-effect5854"
       effect="spiro" />
    <inkscape:path-effect
       effect="spiro"
       id="path-effect5850"
       is_visible="true" />
    <inkscape:path-effect
       is_visible="true"
       id="path-effect5846"
       effect="spiro" />
    <inkscape:path-effect
       is_visible="true"
       id="path-effect5844"
       effect="spiro" />
    <inkscape:path-effect
       effect="spiro"
       id="path-effect5838"
       is_visible="true" />
    <inkscape:path-effect
       effect="spiro"
       id="path-effect5812"
       is_visible="true" />
    <inkscape:path-effect
       effect="spiro"
       id="path-effect5808"
       is_visible="true" />
    <inkscape:path-effect
       effect="spiro"
       id="path-effect5804"
       is_visible="true" />
    <inkscape:path-effect
       effect="spiro"
       id="path-effect5800"
       is_visible="true" />
    <inkscape:path-effect
       effect="spiro"
       id="path-effect5796"
       is_visible="true" />
    <inkscape:path-effect
       effect="spiro"
       id="path-effect5792"
       is_visible="true" />
    <inkscape:path-effect
       is_visible="true"
       id="path-effect5766"
       effect="spiro" />
    <inkscape:path-effect
       is_visible="true"
       id="path-effect5762"
       effect="spiro" />
    <inkscape:path-effect
       effect="spiro"
       id="path-effect5390"
       is_visible="true" />
    <inkscape:path-effect
       effect="spiro"
       id="path-effect4830"
       is_visible="true" />
    <inkscape:path-effect
       effect="spiro"
       id="path-effect4826"
       is_visible="true" />
    <inkscape:path-effect
       is_visible="true"
       id="path-effect4787"
       effect="spiro" />
    <inkscape:path-effect
       is_visible="true"
       id="path-effect4785"
       effect="spiro" />
    <inkscape:path-effect
       is_visible="true"
       id="path-effect4783"
       effect="spiro" />
    <inkscape:path-effect
       effect="spiro"
       id="path-effect4775"
       is_visible="true" />
    <marker
       inkscape:stockid="Arrow1Lend"
       orient="auto"
       refY="0"
       refX="0"
       id="Arrow1Lend"
       style="overflow:visible">
      <path
         id="path4103"
         d="M 0,0 5,-5 -12.5,0 5,5 0,0 Z"
         style="fill-rule:evenodd;stroke:#000000;stroke-width:1pt;marker-start:none"
         transform="matrix(-0.8,0,0,-0.8,-10,0)"
         inkscape:connector-curvature="0" />
    </marker>
    <marker
       inkscape:stockid="Arrow1Lstart"
       orient="auto"
       refY="0"
       refX="0"
       id="Arrow1Lstart"
       style="overflow:visible">
      <path
         id="path4100"
         d="M 0,0 5,-5 -12.5,0 5,5 0,0 Z"
         style="fill-rule:evenodd;stroke:#000000;stroke-width:1pt;marker-start:none"
         transform="matrix(0.8,0,0,0.8,10,0)"
         inkscape:connector-curvature="0" />
    </marker>
    <inkscape:path-effect
       effect="spiro"
       id="path-effect3327"
       is_visible="true" />
  </defs>
  <sodipodi:namedview
     inkscape:document-units="in"
     pagecolor="#ffffff"
     bordercolor="#666666"
     borderopacity="1.0"
     inkscape:pageopacity="0.0"
     inkscape:pageshadow="2"
     inkscape:zoom="1.2570505"
     inkscape:cx="314.64899"
     inkscape:cy="365.31862"
     inkscape:current-layer="layer2"
     id="namedview3301"
     showgrid="false"
     inkscape:window-width="2537"
     inkscape:window-height="1373"
     inkscape:window-x="0"
     inkscape:window-y="0"
     inkscape:window-maximized="0"
     units="in"
     fit-margin-top="50"
     fit-margin-left="50"
     fit-margin-right="50"
     fit-margin-bottom="15"
     showborder="true">
    <inkscape:grid
       type="xygrid"
       id="grid4245"
       originx="-162.86995"
       originy="-227.85749" />
  </sodipodi:namedview>
  <metadata
     id="metadata3303">
    <rdf:RDF>
      <cc:Work
         rdf:about="">
        <dc:format>image/svg+xml</dc:format>
        <dc:type
           rdf:resource="http://purl.org/dc/dcmitype/StillImage" />
        <dc:title></dc:title>
      </cc:Work>
    </rdf:RDF>
  </metadata>
  <g
     inkscape:groupmode="layer"
     id="layer2"
     inkscape:label="JET ENGINE"
     transform="translate(-162.86995,35.660572)">
    <path
       sodipodi:nodetypes="cccc"
       inkscape:connector-curvature="0"
       id="path4609"
       d="m 333.28102,339.79117 c 84.75062,34.34926 85.67586,45.71646 224.49175,49.0791 l 253.00342,-0.56251 c 154.73809,-0.35242 148.18198,-32.81262 267.29231,-35.00257"
       style="fill:none;fill-rule:evenodd;stroke:#000000;stroke-width:3;stroke-linecap:butt;stroke-linejoin:miter;stroke-miterlimit:4;stroke-dasharray:none;stroke-opacity:1" />
    <text
       xml:space="preserve"
       style="font-style:normal;font-weight:normal;font-size:40px;line-height:125%;font-family:Sans;letter-spacing:0px;word-spacing:0px;fill:#000000;fill-opacity:1;stroke:none"
       x="789.91174"
       y="271.50873"
       id="text5768"
       sodipodi:linespacing="125%"><tspan
         sodipodi:role="line"
         id="tspan5770"
         x="789.91174"
         y="271.50873" /></text>
    <text
       xml:space="preserve"
       style="font-style:normal;font-weight:normal;font-size:40px;line-height:125%;font-family:Sans;letter-spacing:0px;word-spacing:0px;fill:#000000;fill-opacity:1;stroke:none"
       x="672.56567"
       y="421.23141"
       id="text5822"
       sodipodi:linespacing="125%"><tspan
         sodipodi:role="line"
         id="tspan5824"
         x="672.56567"
         y="421.23141" /></text>
    <text
       xml:space="preserve"
       style="font-style:normal;font-weight:normal;font-size:40px;line-height:125%;font-family:Sans;letter-spacing:0px;word-spacing:0px;fill:#000000;fill-opacity:1;stroke:none"
       x="206.84286"
       y="186.81717"
       id="text5832"
       sodipodi:linespacing="125%"><tspan
         sodipodi:role="line"
         id="tspan5834"
         x="206.84286"
         y="186.81717" /></text>
    <text
       xml:space="preserve"
       style="font-style:normal;font-variant:normal;font-weight:normal;font-stretch:normal;font-size:20px;line-height:93.99999976%;font-family:'Times New Roman';-inkscape-font-specification:'Times New Roman,';text-align:start;letter-spacing:0px;word-spacing:0px;writing-mode:lr-tb;text-anchor:start;fill:#000000;fill-opacity:1;stroke:none"
       x="138.19843"
       y="313.61456"
       id="text3117"
       sodipodi:linespacing="94%"
       transform="translate(0,270)"><tspan
         sodipodi:role="line"
         id="tspan3119"
         x="138.19843"
         y="313.61456" /></text>
    <text
       xml:space="preserve"
       style="font-style:normal;font-variant:normal;font-weight:normal;font-stretch:normal;font-size:20px;line-height:93.99999976%;font-family:'Times New Roman';-inkscape-font-specification:'Times New Roman,';text-align:start;letter-spacing:0px;word-spacing:0px;writing-mode:lr-tb;text-anchor:start;fill:#000000;fill-opacity:1;stroke:none"
       x="97.890549"
       y="231.84717"
       id="text3121"
       sodipodi:linespacing="94%"
       transform="translate(0,270)"><tspan
         sodipodi:role="line"
         id="tspan3123"
         x="97.890549"
         y="231.84717" /></text>
    <text
       xml:space="preserve"
       style="font-style:italic;font-variant:normal;font-weight:normal;font-stretch:normal;font-size:30px;line-height:125%;font-family:'Times New Roman';-inkscape-font-specification:'Times New Roman, Italic';text-align:start;letter-spacing:0px;word-spacing:0px;writing-mode:lr-tb;text-anchor:start;fill:#000000;fill-opacity:1;stroke:none"
       x="661.41095"
       y="189.50909"
       id="text6741"
       sodipodi:linespacing="125%"><tspan
         sodipodi:role="line"
         id="tspan6743"
         x="661.41095"
         y="189.50909"
         style="font-style:normal;font-variant:normal;font-weight:normal;font-stretch:normal;font-size:40px;font-family:'Times New Roman';-inkscape-font-specification:'Times New Roman, '">Comb</tspan></text>
    <text
       sodipodi:linespacing="125%"
       id="text6745"
       y="262.99762"
       x="533.7027"
       style="font-style:italic;font-variant:normal;font-weight:normal;font-stretch:normal;font-size:30px;line-height:125%;font-family:'Times New Roman';-inkscape-font-specification:'Times New Roman, Italic';text-align:start;letter-spacing:0px;word-spacing:0px;writing-mode:lr-tb;text-anchor:start;fill:#000000;fill-opacity:1;stroke:none"
       xml:space="preserve"><tspan
         style="font-style:normal;font-variant:normal;font-weight:normal;font-stretch:normal;font-size:40px;font-family:'Times New Roman';-inkscape-font-specification:'Times New Roman, '"
         y="262.99762"
         x="533.7027"
         id="tspan6747"
         sodipodi:role="line">C</tspan></text>
    <text
       sodipodi:linespacing="125%"
       id="text6749"
       y="263.60309"
       x="859.96698"
       style="font-style:italic;font-variant:normal;font-weight:normal;font-stretch:normal;font-size:30px;line-height:125%;font-family:'Times New Roman';-inkscape-font-specification:'Times New Roman, Italic';text-align:start;letter-spacing:0px;word-spacing:0px;writing-mode:lr-tb;text-anchor:start;fill:#000000;fill-opacity:1;stroke:none"
       xml:space="preserve"><tspan
         style="font-style:normal;font-variant:normal;font-weight:normal;font-stretch:normal;font-size:40px;font-family:'Times New Roman';-inkscape-font-specification:'Times New Roman, '"
         y="263.60309"
         x="859.96698"
         id="tspan6751"
         sodipodi:role="line">T</tspan></text>
    <path
       sodipodi:nodetypes="ccc"
       inkscape:connector-curvature="0"
       id="path6757"
       d="m 588.84092,220.61691 0,-32.57368 59.03979,0"
       style="fill:none;fill-rule:evenodd;stroke:#000000;stroke-width:2;stroke-linecap:butt;stroke-linejoin:miter;stroke-miterlimit:4;stroke-dasharray:none;stroke-opacity:1" />
    <path
       style="fill:none;fill-rule:evenodd;stroke:#000000;stroke-width:2;stroke-linecap:butt;stroke-linejoin:miter;stroke-miterlimit:4;stroke-dasharray:none;stroke-opacity:1"
       d="m 830.10766,220.61691 0,-32.57368 -54.56091,0"
       id="path6759"
       inkscape:connector-curvature="0"
       sodipodi:nodetypes="ccc" />
    <path
       style="fill:none;fill-rule:evenodd;stroke:#000000;stroke-width:2;stroke-linecap:butt;stroke-linejoin:miter;stroke-miterlimit:4;stroke-dasharray:none;stroke-opacity:1"
       d="m 588.99886,312.05613 241.12341,0.7071"
       id="path6961"
       inkscape:connector-curvature="0" />
    <path
       style="fill:none;fill-rule:evenodd;stroke:#000000;stroke-width:3;stroke-linecap:butt;stroke-linejoin:miter;stroke-miterlimit:4;stroke-dasharray:none;stroke-opacity:1"
       d="m 333.28102,158.28138 c 84.75062,-34.34926 85.67586,-45.71646 224.49175,-49.0791 l 253.00342,0.56251 c 154.73809,0.35242 148.18198,32.81262 267.29231,35.00257"
       id="path6965"
       inkscape:connector-curvature="0"
       sodipodi:nodetypes="cccc" />
    <text
       sodipodi:linespacing="125%"
       id="text6973"
       y="522.14252"
       x="324.74881"
       style="font-style:italic;font-variant:normal;font-weight:normal;font-stretch:normal;font-size:30px;line-height:125%;font-family:'Times New Roman';-inkscape-font-specification:'Times New Roman, Italic';text-align:start;letter-spacing:0px;word-spacing:0px;writing-mode:lr-tb;text-anchor:start;fill:#000000;fill-opacity:1;stroke:none"
       xml:space="preserve"><tspan
         style="font-style:normal;font-variant:normal;font-weight:normal;font-stretch:normal;font-size:30px;font-family:'Times New Roman';-inkscape-font-specification:'Times New Roman, '"
         y="522.14252"
         x="324.74881"
         id="tspan6975"
         sodipodi:role="line">1</tspan></text>
    <text
       xml:space="preserve"
       style="font-style:italic;font-variant:normal;font-weight:normal;font-stretch:normal;font-size:30px;line-height:125%;font-family:'Times New Roman';-inkscape-font-specification:'Times New Roman, Italic';text-align:start;letter-spacing:0px;word-spacing:0px;writing-mode:lr-tb;text-anchor:start;fill:#000000;fill-opacity:1;stroke:none"
       x="442.27194"
       y="522.14252"
       id="text6977"
       sodipodi:linespacing="125%"><tspan
         sodipodi:role="line"
         id="tspan6979"
         x="442.27194"
         y="522.14252"
         style="font-style:normal;font-variant:normal;font-weight:normal;font-stretch:normal;font-size:30px;font-family:'Times New Roman';-inkscape-font-specification:'Times New Roman, '">2</tspan></text>
    <path
       style="fill:none;fill-rule:evenodd;stroke:#000000;stroke-width:1;stroke-linecap:butt;stroke-linejoin:miter;stroke-miterlimit:4;stroke-dasharray:8, 2, 1, 2;stroke-dashoffset:0;stroke-opacity:1"
       d="M 472.73234,249.85141 1071.7536,249.0559"
       id="path6981"
       inkscape:connector-curvature="0" />
    <path
       style="fill:#ffffff;fill-rule:evenodd;stroke:#000000;stroke-width:3;stroke-linecap:butt;stroke-linejoin:miter;stroke-miterlimit:4;stroke-dasharray:none;stroke-opacity:1"
       d="m 459.47874,60.123165 12.4677,0 0,389.002665 -15.90707,0 0,-389.002665 z"
       id="path4607"
       inkscape:connector-curvature="0" />
    <path
       style="fill:none;fill-rule:evenodd;stroke:#000000;stroke-width:3;stroke-linecap:butt;stroke-linejoin:miter;stroke-miterlimit:4;stroke-dasharray:none;stroke-opacity:1"
       d="m 456.02656,214.84885 c -51.1255,5.37956 -68.66405,20.23872 -86.71091,31.82052 43.49568,33.3692 61.69931,28.14749 85.11989,33.41154"
       id="path4611"
       inkscape:connector-curvature="0"
       sodipodi:nodetypes="ccc" />
    <path
       inkscape:connector-curvature="0"
       id="path4613"
       d="m 362.32651,47.446884 0,-8.87438 246.79434,0 0,11.322487 -246.79434,0 z"
       style="fill:#ffffff;fill-rule:evenodd;stroke:#000000;stroke-width:3;stroke-linecap:butt;stroke-linejoin:miter;stroke-miterlimit:4;stroke-dasharray:none;stroke-opacity:1" />
    <path
       style="fill:#ffffff;fill-rule:evenodd;stroke:#000000;stroke-width:3;stroke-linecap:butt;stroke-linejoin:miter;stroke-miterlimit:4;stroke-dasharray:none;stroke-opacity:1"
       d="m 362.32651,467.47774 0,-8.87438 246.79434,0 0,11.32249 -246.79434,0 z"
       id="path4615"
       inkscape:connector-curvature="0" />
    <path
       style="fill:none;fill-rule:evenodd;stroke:#000000;stroke-width:1;stroke-linecap:butt;stroke-linejoin:miter;stroke-miterlimit:4;stroke-dasharray:8, 4;stroke-dashoffset:0;stroke-opacity:1"
       d="m 449.8745,16.182383 0,478.790967"
       id="path6955"
       inkscape:connector-curvature="0" />
    <path
       inkscape:connector-curvature="0"
       id="path4617"
       d="m 332.09371,16.182383 0,478.790967"
       style="fill:none;fill-rule:evenodd;stroke:#000000;stroke-width:1;stroke-linecap:butt;stroke-linejoin:miter;stroke-miterlimit:4;stroke-dasharray:8, 4;stroke-dashoffset:0;stroke-opacity:1" />
    <path
       style="fill:none;fill-rule:evenodd;stroke:#000000;stroke-width:1;stroke-linecap:butt;stroke-linejoin:miter;stroke-miterlimit:4;stroke-dasharray:8, 4;stroke-dashoffset:0;stroke-opacity:1"
       d="m 218.72189,16.182383 0,478.790967"
       id="path4619"
       inkscape:connector-curvature="0" />
    <path
       inkscape:connector-curvature="0"
       id="path4621"
       d="m 951.38935,16.182383 0,478.790967"
       style="fill:none;fill-rule:evenodd;stroke:#000000;stroke-width:1;stroke-linecap:butt;stroke-linejoin:miter;stroke-miterlimit:4;stroke-dasharray:8, 4;stroke-dashoffset:0;stroke-opacity:1" />
    <path
       style="fill:none;fill-rule:evenodd;stroke:#000000;stroke-width:1;stroke-linecap:butt;stroke-linejoin:miter;stroke-miterlimit:4;stroke-dasharray:8, 4;stroke-dashoffset:0;stroke-opacity:1"
       d="m 1077.8759,16.182383 0,478.790967"
       id="path4623"
       inkscape:connector-curvature="0" />
    <text
       sodipodi:linespacing="125%"
       id="text4625"
       y="521.79095"
       x="942.6496"
       style="font-style:italic;font-variant:normal;font-weight:normal;font-stretch:normal;font-size:30px;line-height:125%;font-family:'Times New Roman';-inkscape-font-specification:'Times New Roman, Italic';text-align:start;letter-spacing:0px;word-spacing:0px;writing-mode:lr-tb;text-anchor:start;fill:#000000;fill-opacity:1;stroke:none"
       xml:space="preserve"><tspan
         style="font-style:normal;font-variant:normal;font-weight:normal;font-stretch:normal;font-size:30px;font-family:'Times New Roman';-inkscape-font-specification:'Times New Roman, '"
         y="521.79095"
         x="942.6496"
         id="tspan4627"
         sodipodi:role="line">5</tspan></text>
    <text
       xml:space="preserve"
       style="font-style:italic;font-variant:normal;font-weight:normal;font-stretch:normal;font-size:30px;line-height:125%;font-family:'Times New Roman';-inkscape-font-specification:'Times New Roman, Italic';text-align:start;letter-spacing:0px;word-spacing:0px;writing-mode:lr-tb;text-anchor:start;fill:#000000;fill-opacity:1;stroke:none"
       x="1070.7272"
       y="521.79095"
       id="text4629"
       sodipodi:linespacing="125%"><tspan
         sodipodi:role="line"
         id="tspan4631"
         x="1070.7272"
         y="521.79095"
         style="font-style:italic;font-variant:normal;font-weight:normal;font-stretch:normal;font-size:30px;font-family:'Times New Roman';-inkscape-font-specification:'Times New Roman,  Italic'">e</tspan></text>
    <text
       xml:space="preserve"
       style="font-style:italic;font-variant:normal;font-weight:normal;font-stretch:normal;font-size:30px;line-height:125%;font-family:'Times New Roman';-inkscape-font-specification:'Times New Roman, Italic';text-align:start;letter-spacing:0px;word-spacing:0px;writing-mode:lr-tb;text-anchor:start;fill:#000000;fill-opacity:1;stroke:none"
       x="211.78596"
       y="521.79095"
       id="text4633"
       sodipodi:linespacing="125%"><tspan
         sodipodi:role="line"
         id="tspan4635"
         x="211.78596"
         y="521.79095"
         style="font-style:normal;font-variant:normal;font-weight:normal;font-stretch:normal;font-size:30px;font-family:'Times New Roman';-inkscape-font-specification:'Times New Roman, '">0</tspan></text>
    <path
       style="fill:none;fill-rule:evenodd;stroke:#000000;stroke-width:1;stroke-linecap:butt;stroke-linejoin:miter;stroke-miterlimit:4;stroke-dasharray:8, 4;stroke-dashoffset:0;stroke-opacity:1"
       d="m 609.72774,14.339428 0,92.171652"
       id="path4637"
       inkscape:connector-curvature="0" />
    <path
       inkscape:connector-curvature="0"
       id="path4639"
       d="m 620.86492,172.89844 0,32.50818"
       style="fill:none;fill-rule:evenodd;stroke:#000000;stroke-width:1;stroke-linecap:butt;stroke-linejoin:miter;stroke-miterlimit:4;stroke-dasharray:8, 4;stroke-dashoffset:0;stroke-opacity:1" />
    <path
       style="fill:none;fill-rule:evenodd;stroke:#000000;stroke-width:1;stroke-linecap:butt;stroke-linejoin:miter;stroke-miterlimit:4;stroke-dasharray:8, 4;stroke-dashoffset:0;stroke-opacity:1"
       d="m 802.24188,172.89844 0,32.50818"
       id="path4641"
       inkscape:connector-curvature="0" />
    <text
       xml:space="preserve"
       style="font-style:italic;font-variant:normal;font-weight:normal;font-stretch:normal;font-size:30px;line-height:125%;font-family:'Times New Roman';-inkscape-font-specification:'Times New Roman, Italic';text-align:start;letter-spacing:0px;word-spacing:0px;writing-mode:lr-tb;text-anchor:start;fill:#000000;fill-opacity:1;stroke:none"
       x="615.64886"
       y="91.418427"
       id="text4643"
       sodipodi:linespacing="125%"><tspan
         sodipodi:role="line"
         id="tspan4645"
         x="615.64886"
         y="91.418427"
         style="font-style:normal;font-variant:normal;font-weight:normal;font-stretch:normal;font-size:30px;font-family:'Times New Roman';-inkscape-font-specification:'Times New Roman, '">1<tspan
   style="font-style:italic;font-variant:normal;font-weight:normal;font-stretch:normal;font-family:'Times New Roman';-inkscape-font-specification:'Times New Roman,  Italic'"
   id="tspan4655">e</tspan></tspan></text>
    <text
       sodipodi:linespacing="125%"
       id="text4647"
       y="161.42357"
       x="614.89825"
       style="font-style:italic;font-variant:normal;font-weight:normal;font-stretch:normal;font-size:30px;line-height:125%;font-family:'Times New Roman';-inkscape-font-specification:'Times New Roman, Italic';text-align:start;letter-spacing:0px;word-spacing:0px;writing-mode:lr-tb;text-anchor:start;fill:#000000;fill-opacity:1;stroke:none"
       xml:space="preserve"><tspan
         style="font-style:normal;font-variant:normal;font-weight:normal;font-stretch:normal;font-size:30px;font-family:'Times New Roman';-inkscape-font-specification:'Times New Roman, '"
         y="161.42357"
         x="614.89825"
         id="tspan4649"
         sodipodi:role="line">3</tspan></text>
    <text
       xml:space="preserve"
       style="font-style:italic;font-variant:normal;font-weight:normal;font-stretch:normal;font-size:30px;line-height:125%;font-family:'Times New Roman';-inkscape-font-specification:'Times New Roman, Italic';text-align:start;letter-spacing:0px;word-spacing:0px;writing-mode:lr-tb;text-anchor:start;fill:#000000;fill-opacity:1;stroke:none"
       x="794.6842"
       y="161.42357"
       id="text4651"
       sodipodi:linespacing="125%"><tspan
         sodipodi:role="line"
         id="tspan4653"
         x="794.6842"
         y="161.42357"
         style="font-style:normal;font-variant:normal;font-weight:normal;font-stretch:normal;font-size:30px;font-family:'Times New Roman';-inkscape-font-specification:'Times New Roman, '">4</tspan></text>
  </g>
  <g
     inkscape:label="Layer 1"
     inkscape:groupmode="layer"
     id="layer1"
     transform="translate(-162.86995,35.660572)">
    <path
       inkscape:connector-curvature="0"
       id="path6815"
       d="m 932.53137,225.7788 c -36.63808,-2.50317 -73.71167,-11.58112 -108.7252,-26.62278 l -19.10834,-8.20886 0,-43.16897 0,-43.16897 18.24259,-8.33891 c 40.11901,-18.33889 84.78368,-27.53079 133.77567,-27.53079 50.75021,0 91.05971,8.67003 134.16761,28.85767 l 20.154,9.43819 0,40.82679 0,40.8268 -21.3056,9.25963 c -52.499,22.81659 -102.0878,31.5956 -157.20073,27.8302 z"
       style="opacity:0;fill:#000000;fill-opacity:1;stroke:#00cc00;stroke-width:6.90992117;stroke-miterlimit:4;stroke-dasharray:none;stroke-dashoffset:0;stroke-opacity:1" />
    <path
       inkscape:connector-curvature="0"
       id="path6817"
       d="m 932.53137,225.7788 c -36.63808,-2.50317 -73.71167,-11.58112 -108.7252,-26.62278 l -19.10834,-8.20886 0,-43.16897 0,-43.16897 18.24259,-8.33891 c 40.11901,-18.33889 84.78368,-27.53079 133.77567,-27.53079 50.75021,0 91.05971,8.67003 134.16761,28.85767 l 20.154,9.43819 0,40.82679 0,40.8268 -21.3056,9.25963 c -52.499,22.81659 -102.0878,31.5956 -157.20073,27.8302 z"
       style="opacity:0;fill:#999999;fill-opacity:1;stroke:#00cc00;stroke-width:6.90992117;stroke-miterlimit:4;stroke-dasharray:none;stroke-dashoffset:0;stroke-opacity:1" />
    <path
       inkscape:connector-curvature="0"
       id="path6819"
       d="m 932.53137,225.7788 c -36.63808,-2.50317 -73.71167,-11.58112 -108.7252,-26.62278 l -19.10834,-8.20886 0,-43.16897 0,-43.16897 18.24259,-8.33891 c 40.11901,-18.33889 84.78368,-27.53079 133.77567,-27.53079 50.75021,0 91.05971,8.67003 134.16761,28.85767 l 20.154,9.43819 0,40.82679 0,40.8268 -21.3056,9.25963 c -52.499,22.81659 -102.0878,31.5956 -157.20073,27.8302 z"
       style="opacity:0;fill:#999999;fill-opacity:1;stroke:#00cc00;stroke-width:6.90992117;stroke-miterlimit:4;stroke-dasharray:none;stroke-dashoffset:0;stroke-opacity:1" />
    <path
       inkscape:connector-curvature="0"
       id="path6821"
       d="m 932.53137,225.7788 c -36.63808,-2.50317 -73.71167,-11.58112 -108.7252,-26.62278 l -19.10834,-8.20886 0,-43.16897 0,-43.16897 18.24259,-8.33891 c 40.11901,-18.33889 84.78368,-27.53079 133.77567,-27.53079 50.75021,0 91.05971,8.67003 134.16761,28.85767 l 20.154,9.43819 0,40.82679 0,40.8268 -21.3056,9.25963 c -52.499,22.81659 -102.0878,31.5956 -157.20073,27.8302 z"
       style="opacity:0;fill:#999999;fill-opacity:1;stroke:#00cc00;stroke-width:6.90992117;stroke-miterlimit:4;stroke-dasharray:none;stroke-dashoffset:0;stroke-opacity:1" />
    <path
       inkscape:connector-curvature="0"
       id="path6823"
       d="m 932.53137,225.7788 c -36.63808,-2.50317 -73.71167,-11.58112 -108.7252,-26.62278 l -19.10834,-8.20886 0,-43.16897 0,-43.16897 18.24259,-8.33891 c 40.11901,-18.33889 84.78368,-27.53079 133.77567,-27.53079 50.75021,0 91.05971,8.67003 134.16761,28.85767 l 20.154,9.43819 0,40.82679 0,40.8268 -21.3056,9.25963 c -52.499,22.81659 -102.0878,31.5956 -157.20073,27.8302 z"
       style="opacity:0;fill:#999999;fill-opacity:1;stroke:#00cc00;stroke-width:6.90992117;stroke-miterlimit:4;stroke-dasharray:none;stroke-dashoffset:0;stroke-opacity:1" />
    <path
       inkscape:connector-curvature="0"
       id="path6825"
       d="m 932.53137,225.7788 c -36.63808,-2.50317 -73.71167,-11.58112 -108.7252,-26.62278 l -19.10834,-8.20886 0,-43.16897 0,-43.16897 18.24259,-8.33891 c 40.11901,-18.33889 84.78368,-27.53079 133.77567,-27.53079 50.75021,0 91.05971,8.67003 134.16761,28.85767 l 20.154,9.43819 0,40.82679 0,40.8268 -21.3056,9.25963 c -52.499,22.81659 -102.0878,31.5956 -157.20073,27.8302 z"
       style="opacity:0;fill:#999999;fill-opacity:1;stroke:#00cc00;stroke-width:6.90992117;stroke-miterlimit:4;stroke-dasharray:none;stroke-dashoffset:0;stroke-opacity:1" />
    <path
       sodipodi:nodetypes="sscccssscccss"
       inkscape:connector-curvature="0"
       id="path6827"
       d="m 932.53137,225.7788 c -36.63808,-2.50317 -73.71167,-11.58112 -108.7252,-26.62278 l -19.10834,-8.20886 -3.45496,-43.16897 3.45496,-43.16897 18.24259,-8.33891 c 40.11901,-18.33889 84.78368,-27.53079 133.77567,-27.53079 50.75021,0 91.05971,8.67003 134.16761,28.85767 l 20.154,9.43819 2.3033,41.40262 -2.3033,40.25097 -21.3056,9.25963 c -52.499,22.81659 -102.0878,31.5956 -157.20073,27.8302 z"
       style="opacity:0;fill:#b3b3b3;fill-opacity:1;stroke:#00cc00;stroke-width:6.90992117;stroke-miterlimit:4;stroke-dasharray:none;stroke-dashoffset:0;stroke-opacity:1" />
    <path
       inkscape:connector-curvature="0"
       id="path6829"
       d="m 933.20168,227.24068 c -1.56761,-0.17639 -6.88119,-0.72168 -11.80796,-1.21175 -36.30449,-3.61128 -77.89788,-15.44496 -108.91824,-30.9882 l -9.56852,-4.79446 0,-43.03181 0,-43.03181 9.673,-4.57611 c 64.52343,-30.52481 134.54845,-39.77559 204.27424,-26.98602 29.1951,5.35514 62.7968,16.87877 88.3772,30.30873 l 7.1255,3.74095 0,40.77638 0,40.77639 -7.5289,3.82859 c -35.3828,17.99272 -69.1396,28.34105 -109.92462,33.698 -9.42818,1.23835 -54.3019,2.32293 -61.69425,1.49112 l 6.9e-4,0 z"
       style="opacity:0;fill:#b3b3b3;fill-opacity:1;stroke:#00cc00;stroke-width:2.44302607;stroke-miterlimit:4;stroke-dasharray:none;stroke-dashoffset:0;stroke-opacity:1" />
    <path
       inkscape:connector-curvature="0"
       id="path6831"
       d="m 933.20168,227.24068 c -1.56761,-0.17639 -6.88119,-0.72168 -11.80796,-1.21175 -36.30449,-3.61128 -77.89788,-15.44496 -108.91824,-30.9882 l -9.56852,-4.79446 0,-43.03181 0,-43.03181 9.673,-4.57611 c 64.52343,-30.52481 134.54845,-39.77559 204.27424,-26.98602 29.1951,5.35514 62.7968,16.87877 88.3772,30.30873 l 7.1255,3.74095 0,40.77638 0,40.77639 -7.5289,3.82859 c -35.3828,17.99272 -69.1396,28.34105 -109.92462,33.698 -9.42818,1.23835 -54.3019,2.32293 -61.69425,1.49112 l 6.9e-4,0 z"
       style="opacity:0;fill:#b3b3b3;fill-opacity:1;stroke:#00cc00;stroke-width:2.44302607;stroke-miterlimit:4;stroke-dasharray:none;stroke-dashoffset:0;stroke-opacity:1" />
    <path
       inkscape:connector-curvature="0"
       id="path6833"
       d="m 933.20168,227.24068 c -1.56761,-0.17639 -6.88119,-0.72168 -11.80796,-1.21175 -36.30449,-3.61128 -77.89788,-15.44496 -108.91824,-30.9882 l -9.56852,-4.79446 0,-43.03181 0,-43.03181 9.673,-4.57611 c 64.52343,-30.52481 134.54845,-39.77559 204.27424,-26.98602 29.1951,5.35514 62.7968,16.87877 88.3772,30.30873 l 7.1255,3.74095 0,40.77638 0,40.77639 -7.5289,3.82859 c -35.3828,17.99272 -69.1396,28.34105 -109.92462,33.698 -9.42818,1.23835 -54.3019,2.32293 -61.69425,1.49112 l 6.9e-4,0 z"
       style="opacity:0;fill:#b3b3b3;fill-opacity:1;stroke:#00cc00;stroke-width:2.44302607;stroke-miterlimit:4;stroke-dasharray:none;stroke-dashoffset:0;stroke-opacity:1" />
    <path
       inkscape:connector-curvature="0"
       id="path6835"
       d="m 933.20168,227.24068 c -1.56761,-0.17639 -6.88119,-0.72168 -11.80796,-1.21175 -36.30449,-3.61128 -77.89788,-15.44496 -108.91824,-30.9882 l -9.56852,-4.79446 0,-43.03181 0,-43.03181 9.673,-4.57611 c 64.52343,-30.52481 134.54845,-39.77559 204.27424,-26.98602 29.1951,5.35514 62.7968,16.87877 88.3772,30.30873 l 7.1255,3.74095 0,40.77638 0,40.77639 -7.5289,3.82859 c -35.3828,17.99272 -69.1396,28.34105 -109.92462,33.698 -9.42818,1.23835 -54.3019,2.32293 -61.69425,1.49112 l 6.9e-4,0 z"
       style="opacity:0;fill:#b3b3b3;fill-opacity:1;stroke:#00cc00;stroke-width:2.44302607;stroke-miterlimit:4;stroke-dasharray:none;stroke-dashoffset:0;stroke-opacity:1" />
    <path
       inkscape:connector-curvature="0"
       id="path6837"
       d="m 933.20168,227.24068 c -1.56761,-0.17639 -6.88119,-0.72168 -11.80796,-1.21175 -36.30449,-3.61128 -77.89788,-15.44496 -108.91824,-30.9882 l -9.56852,-4.79446 0,-43.03181 0,-43.03181 9.673,-4.57611 c 64.52343,-30.52481 134.54845,-39.77559 204.27424,-26.98602 29.1951,5.35514 62.7968,16.87877 88.3772,30.30873 l 7.1255,3.74095 0,40.77638 0,40.77639 -7.5289,3.82859 c -35.3828,17.99272 -69.1396,28.34105 -109.92462,33.698 -9.42818,1.23835 -54.3019,2.32293 -61.69425,1.49112 l 6.9e-4,0 z"
       style="opacity:0;fill:#b3b3b3;fill-opacity:1;stroke:#00cc00;stroke-width:2.44302607;stroke-miterlimit:4;stroke-dasharray:none;stroke-dashoffset:0;stroke-opacity:1" />
    <path
       inkscape:connector-curvature="0"
       id="path6839"
       d="m 933.20168,227.24068 c -1.56761,-0.17639 -6.88119,-0.72168 -11.80796,-1.21175 -36.30449,-3.61128 -77.89788,-15.44496 -108.91824,-30.9882 l -9.56852,-4.79446 0,-43.03181 0,-43.03181 9.673,-4.57611 c 64.52343,-30.52481 134.54845,-39.77559 204.27424,-26.98602 29.1951,5.35514 62.7968,16.87877 88.3772,30.30873 l 7.1255,3.74095 0,40.77638 0,40.77639 -7.5289,3.82859 c -35.3828,17.99272 -69.1396,28.34105 -109.92462,33.698 -9.42818,1.23835 -54.3019,2.32293 -61.69425,1.49112 l 6.9e-4,0 z"
       style="opacity:0;fill:#b3b3b3;fill-opacity:1;stroke:#00cc00;stroke-width:2.44302607;stroke-miterlimit:4;stroke-dasharray:none;stroke-dashoffset:0;stroke-opacity:1" />
    <path
       inkscape:connector-curvature="0"
       id="path6841"
       d="m 933.20168,227.24068 c -1.56761,-0.17639 -6.88119,-0.72168 -11.80796,-1.21175 -36.30449,-3.61128 -77.89788,-15.44496 -108.91824,-30.9882 l -9.56852,-4.79446 0,-43.03181 0,-43.03181 9.673,-4.57611 c 64.52343,-30.52481 134.54845,-39.77559 204.27424,-26.98602 29.1951,5.35514 62.7968,16.87877 88.3772,30.30873 l 7.1255,3.74095 0,40.77638 0,40.77639 -7.5289,3.82859 c -35.3828,17.99272 -69.1396,28.34105 -109.92462,33.698 -9.42818,1.23835 -54.3019,2.32293 -61.69425,1.49112 l 6.9e-4,0 z"
       style="opacity:0;fill:#b3b3b3;fill-opacity:1;stroke:#00cc00;stroke-width:2.44302607;stroke-miterlimit:4;stroke-dasharray:none;stroke-dashoffset:0;stroke-opacity:1" />
    <path
       inkscape:connector-curvature="0"
       id="path6843"
       d="m 933.20168,227.24068 c -1.56761,-0.17639 -6.88119,-0.72168 -11.80796,-1.21175 -36.30449,-3.61128 -77.89788,-15.44496 -108.91824,-30.9882 l -9.56852,-4.79446 0,-43.03181 0,-43.03181 9.673,-4.57611 c 64.52343,-30.52481 134.54845,-39.77559 204.27424,-26.98602 29.1951,5.35514 62.7968,16.87877 88.3772,30.30873 l 7.1255,3.74095 0,40.77638 0,40.77639 -7.5289,3.82859 c -35.3828,17.99272 -69.1396,28.34105 -109.92462,33.698 -9.42818,1.23835 -54.3019,2.32293 -61.69425,1.49112 l 6.9e-4,0 z"
       style="opacity:0;fill:#b3b3b3;fill-opacity:1;stroke:#00cc00;stroke-width:2.44302607;stroke-miterlimit:4;stroke-dasharray:none;stroke-dashoffset:0;stroke-opacity:1" />
    <path
       inkscape:connector-curvature="0"
       id="path6845"
       d="m 933.20168,227.24068 c -1.56761,-0.17639 -6.88119,-0.72168 -11.80796,-1.21175 -36.30449,-3.61128 -77.89788,-15.44496 -108.91824,-30.9882 l -9.56852,-4.79446 0,-43.03181 0,-43.03181 9.673,-4.57611 c 64.52343,-30.52481 134.54845,-39.77559 204.27424,-26.98602 29.1951,5.35514 62.7968,16.87877 88.3772,30.30873 l 7.1255,3.74095 0,40.77638 0,40.77639 -7.5289,3.82859 c -35.3828,17.99272 -69.1396,28.34105 -109.92462,33.698 -9.42818,1.23835 -54.3019,2.32293 -61.69425,1.49112 l 6.9e-4,0 z"
       style="opacity:0;fill:#b3b3b3;fill-opacity:1;stroke:#00cc00;stroke-width:2.44302607;stroke-miterlimit:4;stroke-dasharray:none;stroke-dashoffset:0;stroke-opacity:1" />
    <path
       inkscape:connector-curvature="0"
       id="path6847"
       d="m 587.69746,242.44357 242.95671,0"
       style="fill:none;fill-rule:evenodd;stroke:#000000;stroke-width:4;stroke-linecap:butt;stroke-linejoin:miter;stroke-miterlimit:4;stroke-dasharray:none;stroke-opacity:1" />
    <path
       inkscape:connector-curvature="0"
       id="path6849"
       d="m 646.50422,149.753 0,55.89865 129.50468,0 0,-55.89865 z"
       style="fill:none;fill-rule:evenodd;stroke:#000000;stroke-width:2.79185438;stroke-linecap:butt;stroke-linejoin:miter;stroke-miterlimit:4;stroke-dasharray:none;stroke-opacity:1" />
    <g
       transform="translate(-14,-410)"
       style="stroke-width:3;stroke-miterlimit:4;stroke-dasharray:none"
       id="g6851">
      <path
         style="fill:none;fill-rule:evenodd;stroke:#000000;stroke-width:3;stroke-linecap:butt;stroke-linejoin:miter;stroke-miterlimit:4;stroke-dasharray:none;stroke-opacity:1"
         d="m 516.18752,691.06334 -0.87742,-130.56029 87.07512,36.95683 0,93.60346"
         id="path6853"
         inkscape:connector-curvature="0"
         sodipodi:nodetypes="cccc" />
      <path
         sodipodi:nodetypes="cccc"
         inkscape:connector-curvature="0"
         id="path6855"
         d="m 516.18752,690.46813 -0.87742,69.23474 87.07512,-36.95683 0,-31.99"
         style="fill:none;fill-rule:evenodd;stroke:#000000;stroke-width:3;stroke-linecap:butt;stroke-linejoin:miter;stroke-miterlimit:4;stroke-dasharray:none;stroke-opacity:1" />
    </g>
    <path
       style="fill:none;fill-rule:evenodd;stroke:#000000;stroke-width:4;stroke-linecap:butt;stroke-linejoin:miter;stroke-miterlimit:4;stroke-dasharray:none;stroke-opacity:1"
       d="m 587.69746,257.91607 242.95671,0"
       id="path6857"
       inkscape:connector-curvature="0" />
    <g
       style="stroke-width:3;stroke-miterlimit:4;stroke-dasharray:none"
       transform="matrix(-1,0,0,1,1432.8041,-410)"
       id="g6859">
      <path
         sodipodi:nodetypes="cccc"
         inkscape:connector-curvature="0"
         id="path6861"
         d="m 516.18752,691.06334 -0.87742,-130.56029 87.07512,36.95683 0,93.60346"
         style="fill:none;fill-rule:evenodd;stroke:#000000;stroke-width:3;stroke-linecap:butt;stroke-linejoin:miter;stroke-miterlimit:4;stroke-dasharray:none;stroke-opacity:1" />
      <path
         style="fill:none;fill-rule:evenodd;stroke:#000000;stroke-width:3;stroke-linecap:butt;stroke-linejoin:miter;stroke-miterlimit:4;stroke-dasharray:none;stroke-opacity:1"
         d="m 516.18752,690.46813 -0.87742,69.23474 87.07512,-36.95683 0,-31.99"
         id="path6863"
         inkscape:connector-curvature="0"
         sodipodi:nodetypes="cccc" />
    </g>
    <path
       style="fill:none;fill-rule:evenodd;stroke:#000000;stroke-width:4;stroke-linecap:butt;stroke-linejoin:miter;stroke-miterlimit:4;stroke-dasharray:none;stroke-opacity:1"
       d="m 472.94489,242.44357 29.76442,0"
       id="path4603"
       inkscape:connector-curvature="0" />
    <path
       inkscape:connector-curvature="0"
       id="path4605"
       d="m 472.94489,257.91607 29.76442,0"
       style="fill:none;fill-rule:evenodd;stroke:#000000;stroke-width:4;stroke-linecap:butt;stroke-linejoin:miter;stroke-miterlimit:4;stroke-dasharray:none;stroke-opacity:1" />
  </g>
</svg>
